<?xml version="1.0" encoding="utf-8"?>
<!-- Generator: Adobe Illustrator 25.3.1, SVG Export Plug-In . SVG Version: 6.00 Build 0)  -->
<svg version="1.1" id="OBJECTS" xmlns="http://www.w3.org/2000/svg" xmlns:xlink="http://www.w3.org/1999/xlink" x="0px" y="0px"
	 viewBox="0 0 750 500" style="enable-background:new 0 0 750 500;" xml:space="preserve">
<style type="text/css">
	.st0{clip-path:url(#XMLID_24_);}
	.st1{fill:none;stroke:#FFFFFF;stroke-width:1.1533;stroke-linecap:round;stroke-linejoin:round;stroke-miterlimit:10;}
	.st2{clip-path:url(#XMLID_24_);fill:none;stroke:#FFFFFF;stroke-width:2;stroke-miterlimit:10;}
	.st3{fill:#FFFFFF;}
	.st4{fill:#F7F201;}
	.st5{clip-path:url(#XMLID_26_);fill:#F7F201;}
	.st6{clip-path:url(#XMLID_26_);fill:none;stroke:#000000;stroke-width:2.5152;stroke-miterlimit:10;}
	.st7{clip-path:url(#XMLID_26_);}
	.st8{fill:none;stroke:#010101;stroke-width:2;stroke-linecap:round;stroke-linejoin:round;stroke-miterlimit:10;}
	
		.st9{clip-path:url(#XMLID_26_);fill:none;stroke:#010101;stroke-width:1.6547;stroke-linecap:round;stroke-linejoin:round;stroke-miterlimit:10;}
	
		.st10{clip-path:url(#XMLID_26_);fill:none;stroke:#F7F201;stroke-width:1.6547;stroke-linecap:round;stroke-linejoin:round;stroke-miterlimit:10;}
	
		.st11{clip-path:url(#XMLID_26_);fill:none;stroke:#010101;stroke-width:1.1533;stroke-linecap:round;stroke-linejoin:round;stroke-miterlimit:10;}
	
		.st12{clip-path:url(#XMLID_26_);fill:none;stroke:#F7F201;stroke-width:1.1533;stroke-linecap:round;stroke-linejoin:round;stroke-miterlimit:10;}
	
		.st13{clip-path:url(#XMLID_26_);fill:none;stroke:#FFAF00;stroke-width:1.1533;stroke-linecap:round;stroke-linejoin:round;stroke-miterlimit:10;}
	.st14{clip-path:url(#XMLID_26_);fill:none;stroke:#F7F201;stroke-width:1.7707;stroke-miterlimit:10;}
	.st15{fill:#010101;}
	.st16{clip-path:url(#XMLID_26_);fill:none;stroke:#F7F201;stroke-width:2;stroke-miterlimit:10;}
	
		.st17{clip-path:url(#XMLID_26_);fill:none;stroke:#010101;stroke-width:2;stroke-linecap:round;stroke-linejoin:round;stroke-miterlimit:10;}
	
		.st18{clip-path:url(#XMLID_26_);fill:none;stroke:#F7F201;stroke-width:2;stroke-linecap:round;stroke-linejoin:round;stroke-miterlimit:10;}
	
		.st19{clip-path:url(#XMLID_26_);fill:none;stroke:#010101;stroke-width:3;stroke-linecap:round;stroke-linejoin:round;stroke-miterlimit:10;}
	.st20{clip-path:url(#XMLID_26_);fill:none;stroke:#F7F201;stroke-width:2.3747;stroke-miterlimit:10;}
	.st21{clip-path:url(#XMLID_26_);fill:none;stroke:#F7F201;stroke-width:1.6628;stroke-miterlimit:10;}
	.st22{clip-path:url(#XMLID_26_);fill:#010101;}
	.st23{clip-path:url(#XMLID_26_);fill:none;stroke:#010101;stroke-width:2;stroke-miterlimit:10;}
	.st24{clip-path:url(#XMLID_26_);fill:none;stroke:#F7F201;stroke-width:1.7064;stroke-miterlimit:10;}
	.st25{clip-path:url(#XMLID_26_);fill:none;stroke:#F7F201;stroke-linecap:round;stroke-linejoin:round;stroke-miterlimit:10;}
	
		.st26{clip-path:url(#XMLID_26_);fill:none;stroke:#F7F201;stroke-width:6;stroke-linecap:round;stroke-linejoin:round;stroke-miterlimit:10;}
	.st27{clip-path:url(#XMLID_26_);fill:none;stroke:#F7F201;stroke-width:6;stroke-miterlimit:10;}
	
		.st28{clip-path:url(#XMLID_26_);fill:none;stroke:#F7F201;stroke-width:15;stroke-linecap:round;stroke-linejoin:round;stroke-miterlimit:10;}
	
		.st29{clip-path:url(#XMLID_26_);fill:none;stroke:#010101;stroke-width:15;stroke-linecap:round;stroke-linejoin:round;stroke-miterlimit:10;}
	.st30{fill:none;stroke:#010101;stroke-width:2.5624;stroke-miterlimit:10;}
	.st31{clip-path:url(#XMLID_26_);fill:#FFAF00;}
	.st32{fill:#FFAF00;}
	
		.st33{clip-path:url(#XMLID_26_);fill:none;stroke:#F7F201;stroke-width:10;stroke-linecap:round;stroke-linejoin:round;stroke-miterlimit:10;}
	
		.st34{clip-path:url(#XMLID_26_);fill:none;stroke:#010101;stroke-width:8;stroke-linecap:round;stroke-linejoin:round;stroke-miterlimit:10;}
	.st35{fill:none;stroke:#F7F201;stroke-miterlimit:10;}
	.st36{fill:none;stroke:#F7F201;stroke-width:2;stroke-miterlimit:10;}
	
		.st37{clip-path:url(#XMLID_26_);fill:none;stroke:#010101;stroke-width:4;stroke-linecap:round;stroke-linejoin:round;stroke-miterlimit:10;}
	
		.st38{clip-path:url(#XMLID_26_);fill:none;stroke:#010101;stroke-width:2.2857;stroke-linecap:round;stroke-linejoin:round;stroke-miterlimit:10;}
</style>
<g id="XMLID_650_">
	<defs>
		<rect id="XMLID_459_" width="750" height="500"/>
	</defs>
	<clipPath id="XMLID_24_">
		<use xlink:href="#XMLID_459_"  style="overflow:visible;"/>
	</clipPath>
	<g id="XMLID_504_" class="st0">
		<line id="XMLID_526_" class="st1" x1="608.78" y1="133.35" x2="612.92" y2="137.49"/>
		<line id="XMLID_525_" class="st1" x1="594.59" y1="119.16" x2="602.19" y2="126.76"/>
		<line id="XMLID_524_" class="st1" x1="607.47" y1="120.08" x2="636.09" y2="148.7"/>
		<line id="XMLID_523_" class="st1" x1="592.87" y1="105.49" x2="598.68" y2="111.29"/>
		<line id="XMLID_522_" class="st1" x1="628.04" y1="128.69" x2="653.22" y2="153.87"/>
		<line id="XMLID_521_" class="st1" x1="590.04" y1="90.69" x2="616.89" y2="117.54"/>
		<line id="XMLID_520_" class="st1" x1="611.09" y1="99.78" x2="655.54" y2="144.23"/>
		<line id="XMLID_519_" class="st1" x1="592.71" y1="81.4" x2="602.12" y2="90.81"/>
		<line id="XMLID_518_" class="st1" x1="647.79" y1="124.52" x2="658.47" y2="135.2"/>
		<line id="XMLID_517_" class="st1" x1="582.07" y1="58.79" x2="636.55" y2="113.28"/>
		<line id="XMLID_516_" class="st1" x1="625.77" y1="90.54" x2="679" y2="143.77"/>
		<line id="XMLID_515_" class="st1" x1="602.26" y1="67.03" x2="614.63" y2="79.39"/>
		<line id="XMLID_514_" class="st1" x1="636.1" y1="88.91" x2="670.49" y2="123.3"/>
		<line id="XMLID_513_" class="st1" x1="601" y1="53.8" x2="626.41" y2="79.21"/>
		<line id="XMLID_512_" class="st1" x1="664.46" y1="105.31" x2="682.43" y2="123.27"/>
		<line id="XMLID_511_" class="st1" x1="616.52" y1="57.37" x2="651.42" y2="92.26"/>
		<line id="XMLID_510_" class="st1" x1="647.07" y1="75.95" x2="671.33" y2="100.21"/>
		<line id="XMLID_509_" class="st1" x1="619.4" y1="48.29" x2="637.55" y2="66.43"/>
		<line id="XMLID_508_" class="st1" x1="668.63" y1="85.55" x2="678.07" y2="94.99"/>
		<line id="XMLID_507_" class="st1" x1="633.92" y1="50.85" x2="657.85" y2="74.77"/>
		<line id="XMLID_506_" class="st1" x1="663.73" y1="68.69" x2="669.53" y2="74.49"/>
		<line id="XMLID_505_" class="st1" x1="653.54" y1="58.5" x2="657.54" y2="62.5"/>
	</g>
	<g id="XMLID_564_" class="st0">
		<line id="XMLID_581_" class="st1" x1="296.04" y1="499.36" x2="322.89" y2="526.21"/>
		<line id="XMLID_579_" class="st1" x1="298.71" y1="490.07" x2="308.12" y2="499.48"/>
		<line id="XMLID_577_" class="st1" x1="288.07" y1="467.46" x2="342.55" y2="521.95"/>
		<line id="XMLID_576_" class="st1" x1="331.77" y1="499.2" x2="385" y2="552.44"/>
		<line id="XMLID_575_" class="st1" x1="308.26" y1="475.69" x2="320.63" y2="488.06"/>
		<line id="XMLID_574_" class="st1" x1="342.1" y1="497.57" x2="376.49" y2="531.96"/>
		<line id="XMLID_573_" class="st1" x1="307" y1="462.47" x2="332.41" y2="487.88"/>
		<line id="XMLID_571_" class="st1" x1="322.52" y1="466.03" x2="357.42" y2="500.93"/>
		<line id="XMLID_570_" class="st1" x1="353.07" y1="484.62" x2="377.33" y2="508.88"/>
		<line id="XMLID_569_" class="st1" x1="325.4" y1="456.95" x2="343.55" y2="475.1"/>
		<line id="XMLID_568_" class="st1" x1="374.63" y1="494.22" x2="384.07" y2="503.66"/>
		<line id="XMLID_567_" class="st1" x1="339.92" y1="459.51" x2="363.85" y2="483.44"/>
		<line id="XMLID_566_" class="st1" x1="369.73" y1="477.36" x2="375.53" y2="483.15"/>
		<line id="XMLID_565_" class="st1" x1="359.54" y1="467.17" x2="363.54" y2="471.17"/>
	</g>
	<g id="XMLID_627_" class="st0">
		<line id="XMLID_649_" class="st1" x1="330.78" y1="7.35" x2="334.92" y2="11.49"/>
		<line id="XMLID_648_" class="st1" x1="316.59" y1="-6.84" x2="324.19" y2="0.76"/>
		<line id="XMLID_647_" class="st1" x1="329.47" y1="-5.92" x2="358.09" y2="22.7"/>
		<line id="XMLID_645_" class="st1" x1="350.04" y1="2.69" x2="375.22" y2="27.87"/>
		<line id="XMLID_643_" class="st1" x1="333.09" y1="-26.22" x2="377.54" y2="18.23"/>
		<line id="XMLID_641_" class="st1" x1="369.79" y1="-1.48" x2="380.47" y2="9.2"/>
		<line id="XMLID_639_" class="st1" x1="347.77" y1="-35.46" x2="401" y2="17.77"/>
	</g>
	<path id="XMLID_503_" class="st2" d="M243.13,113.72L243.13,113.72c5.78,5.78,5.78,15.16,0,20.94h0c-5.78,5.78-15.16,5.78-20.94,0
		l0,0c-5.78-5.78-5.78-15.16,0-20.94v0C227.98,107.94,237.35,107.94,243.13,113.72z"/>
	<path id="XMLID_625_" class="st2" d="M554.47,133.72L554.47,133.72c5.78,5.78,5.78,15.16,0,20.94l0,0
		c-5.78,5.78-15.16,5.78-20.94,0l0,0c-5.78-5.78-5.78-15.16,0-20.94v0C539.31,127.94,548.68,127.94,554.47,133.72z"/>
	<path id="XMLID_626_" class="st2" d="M195,456.5L195,456.5c3.91,3.91,3.91,10.24,0,14.14l0,0c-3.91,3.91-10.24,3.91-14.14,0l0,0
		c-3.91-3.91-3.91-10.24,0-14.14l0,0C184.76,452.59,191.09,452.59,195,456.5z"/>
	<g id="XMLID_466_" class="st0">
		<g id="XMLID_497_">
			<path id="XMLID_502_" class="st3" d="M324.37,377.61c0.77-0.77,2.01-0.77,2.78,0c0.77,0.77,0.77,2.01,0,2.78
				c-0.77,0.77-2.01,0.77-2.78,0C323.61,379.62,323.61,378.38,324.37,377.61z"/>
			<path id="XMLID_501_" class="st3" d="M302.63,355.87c0.77-0.77,2.01-0.77,2.78,0c0.77,0.77,0.77,2.01,0,2.78
				c-0.77,0.77-2.01,0.77-2.78,0C301.87,357.88,301.87,356.64,302.63,355.87z"/>
			<circle id="XMLID_500_" class="st3" cx="282.28" cy="335.52" r="1.96"/>
			<circle id="XMLID_499_" class="st4" cx="260.54" cy="313.78" r="1.96"/>
			<circle id="XMLID_498_" class="st3" cx="238.8" cy="292.03" r="1.96"/>
		</g>
		<g id="XMLID_491_">
			<circle id="XMLID_496_" class="st3" cx="345.19" cy="359.57" r="1.96"/>
			<circle id="XMLID_495_" class="st3" cx="323.45" cy="337.83" r="1.96"/>
			<path id="XMLID_494_" class="st4" d="M300.32,314.7c0.77-0.77,2.01-0.77,2.78,0c0.77,0.77,0.77,2.01,0,2.78
				c-0.77,0.77-2.01,0.77-2.78,0C299.55,316.71,299.55,315.47,300.32,314.7z"/>
			<path id="XMLID_493_" class="st4" d="M278.58,292.96c0.77-0.77,2.01-0.77,2.78,0c0.77,0.77,0.77,2.01,0,2.78
				c-0.77,0.77-2.01,0.77-2.78,0C277.81,294.97,277.81,293.73,278.58,292.96z"/>
			<path id="XMLID_492_" class="st4" d="M256.84,271.22c0.77-0.77,2.01-0.77,2.78,0c0.77,0.77,0.77,2.01,0,2.78
				c-0.77,0.77-2.01,0.77-2.78,0C256.07,273.23,256.07,271.99,256.84,271.22z"/>
		</g>
		<g id="XMLID_485_">
			<circle id="XMLID_490_" class="st3" cx="364.62" cy="340.14" r="1.96"/>
			<path id="XMLID_489_" class="st3" d="M341.49,317.01c0.77-0.77,2.01-0.77,2.78,0c0.77,0.77,0.77,2.01,0,2.78
				c-0.77,0.77-2.01,0.77-2.78,0C340.72,319.02,340.72,317.78,341.49,317.01z"/>
			<path id="XMLID_488_" class="st3" d="M319.75,295.27c0.77-0.77,2.01-0.77,2.78,0c0.77,0.77,0.77,2.01,0,2.78
				c-0.77,0.77-2.01,0.77-2.78,0C318.98,297.28,318.98,296.04,319.75,295.27z"/>
			<path id="XMLID_487_" class="st4" d="M298.01,273.53c0.77-0.77,2.01-0.77,2.78,0c0.77,0.77,0.77,2.01,0,2.78
				c-0.77,0.77-2.01,0.77-2.78,0C297.24,275.54,297.24,274.3,298.01,273.53z"/>
			<path id="XMLID_486_" class="st3" d="M276.27,251.79c0.77-0.77,2.01-0.77,2.78,0c0.77,0.77,0.77,2.01,0,2.78
				c-0.77,0.77-2.01,0.77-2.78,0C275.5,253.8,275.5,252.56,276.27,251.79z"/>
		</g>
		<g id="XMLID_479_">
			<path id="XMLID_484_" class="st3" d="M382.66,319.33c0.77-0.77,2.01-0.77,2.78,0c0.77,0.77,0.77,2.01,0,2.78
				c-0.77,0.77-2.01,0.77-2.78,0C381.89,321.34,381.89,320.09,382.66,319.33z"/>
			<path id="XMLID_483_" class="st3" d="M360.92,297.59c0.77-0.77,2.01-0.77,2.78,0c0.77,0.77,0.77,2.01,0,2.78
				c-0.77,0.77-2.01,0.77-2.78,0C360.15,299.59,360.15,298.35,360.92,297.59z"/>
			<circle id="XMLID_482_" class="st3" cx="340.56" cy="277.23" r="1.96"/>
			<circle id="XMLID_481_" class="st3" cx="318.82" cy="255.49" r="1.96"/>
			<circle id="XMLID_480_" class="st3" cx="297.08" cy="233.75" r="1.96"/>
		</g>
		<g id="XMLID_473_">
			<circle id="XMLID_478_" class="st3" cx="403.47" cy="301.29" r="1.96"/>
			<circle id="XMLID_477_" class="st3" cx="381.73" cy="279.55" r="1.96"/>
			<path id="XMLID_476_" class="st3" d="M358.6,256.42c0.77-0.77,2.01-0.77,2.78,0c0.77,0.77,0.77,2.01,0,2.78
				c-0.77,0.77-2.01,0.77-2.78,0C357.84,258.43,357.84,257.18,358.6,256.42z"/>
			<path id="XMLID_475_" class="st3" d="M336.86,234.68c0.77-0.77,2.01-0.77,2.78,0c0.77,0.77,0.77,2.01,0,2.78
				c-0.77,0.77-2.01,0.77-2.78,0C336.1,236.69,336.1,235.44,336.86,234.68z"/>
			<path id="XMLID_474_" class="st3" d="M315.12,212.94c0.77-0.77,2.01-0.77,2.78,0c0.77,0.77,0.77,2.01,0,2.78
				c-0.77,0.77-2.01,0.77-2.78,0C314.36,214.94,314.36,213.7,315.12,212.94z"/>
		</g>
		<g id="XMLID_467_">
			<circle id="XMLID_472_" class="st3" cx="422.9" cy="281.86" r="1.96"/>
			<path id="XMLID_471_" class="st3" d="M399.77,258.73c0.77-0.77,2.01-0.77,2.78,0c0.77,0.77,0.77,2.01,0,2.78
				c-0.77,0.77-2.01,0.77-2.78,0C399.01,260.74,399.01,259.5,399.77,258.73z"/>
			<path id="XMLID_470_" class="st3" d="M378.03,236.99c0.77-0.77,2.01-0.77,2.78,0c0.77,0.77,0.77,2.01,0,2.78
				c-0.77,0.77-2.01,0.77-2.78,0C377.27,239,377.27,237.76,378.03,236.99z"/>
			<circle id="XMLID_469_" class="st3" cx="357.68" cy="216.64" r="1.96"/>
			<path id="XMLID_468_" class="st3" d="M334.55,193.51c0.77-0.77,2.01-0.77,2.78,0c0.77,0.77,0.77,2.01,0,2.78
				c-0.77,0.77-2.01,0.77-2.78,0C333.78,195.52,333.78,194.27,334.55,193.51z"/>
		</g>
	</g>
	<g id="XMLID_587_" class="st0">
		<g id="XMLID_619_">
			<path id="XMLID_623_" class="st3" d="M735.82,291.87c0.77-0.77,2.01-0.77,2.78,0c0.77,0.77,0.77,2.01,0,2.78
				c-0.77,0.77-2.01,0.77-2.78,0C735.05,293.88,735.05,292.63,735.82,291.87z"/>
			<path id="XMLID_622_" class="st3" d="M714.08,270.13c0.77-0.77,2.01-0.77,2.78,0c0.77,0.77,0.77,2.01,0,2.78
				c-0.77,0.77-2.01,0.77-2.78,0C713.31,272.13,713.31,270.89,714.08,270.13z"/>
			<path id="XMLID_621_" class="st3" d="M692.34,248.38c0.77-0.77,2.01-0.77,2.78,0s0.77,2.01,0,2.78c-0.77,0.77-2.01,0.77-2.78,0
				C691.57,250.39,691.57,249.15,692.34,248.38z"/>
			<circle id="XMLID_620_" class="st3" cx="671.99" cy="228.03" r="1.96"/>
		</g>
		<g id="XMLID_613_">
			<circle id="XMLID_616_" class="st3" cx="734.9" cy="252.09" r="1.96"/>
			<circle id="XMLID_615_" class="st3" cx="713.16" cy="230.34" r="1.96"/>
			<circle id="XMLID_614_" class="st3" cx="691.41" cy="208.6" r="1.96"/>
		</g>
		<g id="XMLID_607_">
			<path id="XMLID_609_" class="st3" d="M731.2,209.53c0.77-0.77,2.01-0.77,2.78,0c0.77,0.77,0.77,2.01,0,2.78
				c-0.77,0.77-2.01,0.77-2.78,0C730.43,211.54,730.43,210.3,731.2,209.53z"/>
			<path id="XMLID_608_" class="st3" d="M709.45,187.79c0.77-0.77,2.01-0.77,2.78,0c0.77,0.77,0.77,2.01,0,2.78
				c-0.77,0.77-2.01,0.77-2.78,0S708.69,188.55,709.45,187.79z"/>
		</g>
		<g id="XMLID_600_">
			<path id="XMLID_601_" class="st3" d="M728.88,168.36c0.77-0.77,2.01-0.77,2.78,0c0.77,0.77,0.77,2.01,0,2.78
				c-0.77,0.77-2.01,0.77-2.78,0C728.12,170.37,728.12,169.13,728.88,168.36z"/>
		</g>
		<g id="XMLID_594_">
			<circle id="XMLID_595_" class="st3" cx="749.7" cy="150.32" r="1.96"/>
		</g>
	</g>
	<g id="XMLID_527_" class="st0">
		<g id="XMLID_552_">
			<path id="XMLID_557_" class="st3" d="M1.29,162.56c0.77-0.77,2.01-0.77,2.78,0s0.77,2.01,0,2.78c-0.77,0.77-2.01,0.77-2.78,0
				C0.53,164.57,0.53,163.33,1.29,162.56z"/>
		</g>
		<g id="XMLID_546_">
			<circle id="XMLID_551_" class="st3" cx="22.11" cy="144.52" r="1.96"/>
			<circle id="XMLID_550_" class="st3" cx="0.37" cy="122.78" r="1.96"/>
		</g>
		<g id="XMLID_540_">
			<path id="XMLID_545_" class="st3" d="M40.15,123.71c0.77-0.77,2.01-0.77,2.78,0c0.77,0.77,0.77,2.01,0,2.78
				c-0.77,0.77-2.01,0.77-2.78,0C39.38,125.72,39.38,124.47,40.15,123.71z"/>
			<path id="XMLID_544_" class="st3" d="M18.41,101.97c0.77-0.77,2.01-0.77,2.78,0c0.77,0.77,0.77,2.01,0,2.78
				c-0.77,0.77-2.01,0.77-2.78,0C17.64,103.97,17.64,102.73,18.41,101.97z"/>
			<path id="XMLID_543_" class="st3" d="M-3.33,80.22c0.77-0.77,2.01-0.77,2.78,0c0.77,0.77,0.77,2.01,0,2.78s-2.01,0.77-2.78,0
				C-4.1,82.23-4.1,80.99-3.33,80.22z"/>
		</g>
		<g id="XMLID_534_">
			<path id="XMLID_539_" class="st3" d="M59.58,104.28c0.77-0.77,2.01-0.77,2.78,0c0.77,0.77,0.77,2.01,0,2.78
				c-0.77,0.77-2.01,0.77-2.78,0C58.81,106.29,58.81,105.04,59.58,104.28z"/>
			<path id="XMLID_538_" class="st3" d="M37.84,82.54c0.77-0.77,2.01-0.77,2.78,0c0.77,0.77,0.77,2.01,0,2.78
				c-0.77,0.77-2.01,0.77-2.78,0C37.07,84.55,37.07,83.3,37.84,82.54z"/>
			<path id="XMLID_537_" class="st3" d="M16.09,60.8c0.77-0.77,2.01-0.77,2.78,0c0.77,0.77,0.77,2.01,0,2.78
				c-0.77,0.77-2.01,0.77-2.78,0C15.33,62.81,15.33,61.56,16.09,60.8z"/>
		</g>
		<g id="XMLID_528_">
			<circle id="XMLID_533_" class="st3" cx="80.39" cy="86.24" r="1.96"/>
			<circle id="XMLID_532_" class="st3" cx="58.65" cy="64.5" r="1.96"/>
			<path id="XMLID_531_" class="st3" d="M35.52,41.37c0.77-0.77,2.01-0.77,2.78,0c0.77,0.77,0.77,2.01,0,2.78
				c-0.77,0.77-2.01,0.77-2.78,0C34.76,43.38,34.76,42.14,35.52,41.37z"/>
			<path id="XMLID_530_" class="st3" d="M13.78,19.63c0.77-0.77,2.01-0.77,2.78,0c0.77,0.77,0.77,2.01,0,2.78
				c-0.77,0.77-2.01,0.77-2.78,0C13.02,21.64,13.02,20.39,13.78,19.63z"/>
		</g>
	</g>
</g>
<g id="XMLID_360_">
	<defs>
		<rect id="XMLID_428_" width="750" height="500"/>
	</defs>
	<clipPath id="XMLID_26_">
		<use xlink:href="#XMLID_428_"  style="overflow:visible;"/>
	</clipPath>
	<path id="XMLID_52_" class="st5" d="M574.97,46.87c10.42,10.32,10.43,27.07,0,37.39l-37.75-37.39
		C547.64,36.54,564.54,36.55,574.97,46.87z"/>
	<path id="XMLID_25_" class="st6" d="M554.53,101.63c-10.42-10.32-10.43-27.07,0-37.39l37.75,37.39
		C581.86,111.96,564.96,111.95,554.53,101.63z"/>
	<path id="XMLID_418_" class="st5" d="M204.3,220.87c10.42,10.32,10.43,27.07,0,37.39l-37.75-37.39
		C176.98,210.54,193.88,210.55,204.3,220.87z"/>
	<path id="XMLID_417_" class="st6" d="M183.87,275.63c-10.42-10.32-10.43-27.07,0-37.39l37.75,37.39
		C211.19,285.96,194.29,285.95,183.87,275.63z"/>
	<path id="XMLID_58_" class="st5" d="M623.46,332.01c16.5,16.5,16.5,43.25,0.01,59.74L563.72,332
		C580.21,315.5,606.96,315.51,623.46,332.01z"/>
	<g id="XMLID_54_" class="st7">
		<path id="XMLID_23_" class="st8" d="M621.71,343.84c16.5,16.5,16.5,43.25,0.01,59.74l-59.75-59.75
			C578.46,327.34,605.21,327.34,621.71,343.84z"/>
	</g>
	<line id="XMLID_83_" class="st9" x1="11.89" y1="441.92" x2="17.82" y2="447.85"/>
	<line id="XMLID_82_" class="st9" x1="-8.47" y1="421.55" x2="2.43" y2="432.46"/>
	<line id="XMLID_81_" class="st9" x1="10.01" y1="422.87" x2="51.07" y2="463.93"/>
	<line id="XMLID_79_" class="st10" x1="39.52" y1="435.22" x2="75.65" y2="471.35"/>
	<line id="XMLID_78_" class="st10" x1="-15" y1="380.71" x2="23.53" y2="419.23"/>
	<line id="XMLID_77_" class="st9" x1="15.21" y1="393.75" x2="78.98" y2="457.52"/>
	<line id="XMLID_76_" class="st9" x1="-11.16" y1="367.38" x2="2.34" y2="380.88"/>
	<line id="XMLID_75_" class="st9" x1="67.86" y1="429.24" x2="83.19" y2="444.57"/>
	<line id="XMLID_74_" class="st9" x1="-26.44" y1="334.94" x2="51.74" y2="413.12"/>
	<line id="XMLID_73_" class="st10" x1="36.27" y1="380.49" x2="112.64" y2="456.86"/>
	<line id="XMLID_72_" class="st10" x1="2.53" y1="346.75" x2="20.28" y2="364.5"/>
	<line id="XMLID_71_" class="st9" x1="51.09" y1="378.15" x2="100.43" y2="427.48"/>
	<line id="XMLID_70_" class="st9" x1="0.72" y1="327.78" x2="37.18" y2="364.24"/>
	<line id="XMLID_69_" class="st10" x1="91.78" y1="401.68" x2="117.55" y2="427.45"/>
	<line id="XMLID_68_" class="st10" x1="23" y1="332.9" x2="73.06" y2="382.96"/>
	<line id="XMLID_67_" class="st9" x1="66.82" y1="359.56" x2="101.63" y2="394.37"/>
	<line id="XMLID_66_" class="st9" x1="27.13" y1="319.87" x2="53.17" y2="345.9"/>
	<line id="XMLID_65_" class="st10" x1="97.76" y1="373.34" x2="111.3" y2="386.88"/>
	<line id="XMLID_64_" class="st10" x1="47.96" y1="323.54" x2="82.29" y2="357.86"/>
	<line id="XMLID_63_" class="st9" x1="90.72" y1="349.14" x2="99.04" y2="357.46"/>
	<line id="XMLID_62_" class="st9" x1="76.11" y1="334.53" x2="81.85" y2="340.27"/>
	<line id="XMLID_106_" class="st11" x1="708.78" y1="104.69" x2="712.92" y2="108.82"/>
	<line id="XMLID_105_" class="st11" x1="694.59" y1="90.49" x2="702.19" y2="98.1"/>
	<line id="XMLID_104_" class="st11" x1="707.47" y1="91.41" x2="736.09" y2="120.03"/>
	<line id="XMLID_103_" class="st11" x1="692.87" y1="76.82" x2="698.68" y2="82.62"/>
	<line id="XMLID_102_" class="st12" x1="728.04" y1="100.02" x2="753.22" y2="125.2"/>
	<line id="XMLID_101_" class="st12" x1="690.04" y1="62.02" x2="716.89" y2="88.87"/>
	<line id="XMLID_100_" class="st11" x1="711.09" y1="71.11" x2="755.54" y2="115.56"/>
	<line id="XMLID_99_" class="st11" x1="692.71" y1="52.74" x2="702.12" y2="62.14"/>
	<line id="XMLID_98_" class="st11" x1="747.79" y1="95.85" x2="758.47" y2="106.54"/>
	<line id="XMLID_97_" class="st11" x1="682.07" y1="30.13" x2="736.55" y2="84.62"/>
	<line id="XMLID_96_" class="st12" x1="725.77" y1="61.87" x2="779" y2="115.1"/>
	<line id="XMLID_95_" class="st12" x1="702.26" y1="38.36" x2="714.63" y2="50.73"/>
	<line id="XMLID_94_" class="st11" x1="736.1" y1="60.24" x2="770.49" y2="94.63"/>
	<line id="XMLID_93_" class="st11" x1="701" y1="25.14" x2="726.41" y2="50.54"/>
	<line id="XMLID_91_" class="st12" x1="716.52" y1="28.7" x2="751.42" y2="63.59"/>
	<line id="XMLID_90_" class="st11" x1="747.07" y1="47.28" x2="771.33" y2="71.55"/>
	<line id="XMLID_89_" class="st11" x1="719.4" y1="19.62" x2="737.55" y2="37.77"/>
	<line id="XMLID_87_" class="st12" x1="733.92" y1="22.18" x2="757.85" y2="46.1"/>
	<path id="XMLID_22_" class="st14" d="M397.4,150.26l-42.43-42.43c-0.67-0.67-0.67-1.76,0-2.43l42.43-42.43
		c0.67-0.67,1.76-0.67,2.43,0l42.43,42.43c0.67,0.67,0.67,1.76,0,2.43l-42.43,42.43C399.16,150.93,398.08,150.93,397.4,150.26z"/>
	<g id="XMLID_602_" class="st7">
		<g id="XMLID_735_">
			<circle id="XMLID_746_" class="st15" cx="399.49" cy="48.99" r="0.99"/>
			<path id="XMLID_745_" class="st15" d="M411.2,60.7c-0.39,0.39-1.02,0.39-1.4,0c-0.39-0.39-0.39-1.02,0-1.4
				c0.39-0.39,1.02-0.39,1.4,0C411.59,59.68,411.59,60.31,411.2,60.7z"/>
			<path id="XMLID_744_" class="st15" d="M422.2,71.7c-0.39,0.39-1.02,0.39-1.4,0c-0.39-0.39-0.39-1.02,0-1.4
				c0.39-0.39,1.02-0.39,1.4,0C422.59,70.68,422.59,71.31,422.2,71.7z"/>
			<path id="XMLID_743_" class="st15" d="M433.21,82.71c-0.39,0.39-1.02,0.39-1.4,0c-0.39-0.39-0.39-1.02,0-1.4
				c0.39-0.39,1.02-0.39,1.4,0C433.6,81.69,433.6,82.32,433.21,82.71z"/>
			<circle id="XMLID_742_" class="st15" cx="443.51" cy="93.01" r="0.99"/>
		</g>
		<g id="XMLID_723_">
			<path id="XMLID_734_" class="st15" d="M390.36,59.52c-0.39,0.39-1.02,0.39-1.4,0c-0.39-0.39-0.39-1.02,0-1.4
				c0.39-0.39,1.02-0.39,1.4,0C390.75,58.51,390.75,59.14,390.36,59.52z"/>
			<circle id="XMLID_733_" class="st15" cx="400.66" cy="69.83" r="0.99"/>
			<circle id="XMLID_732_" class="st15" cx="411.67" cy="80.83" r="0.99"/>
			<circle id="XMLID_731_" class="st15" cx="422.67" cy="91.84" r="0.99"/>
			<circle id="XMLID_730_" class="st15" cx="433.68" cy="102.84" r="0.99"/>
		</g>
		<g id="XMLID_711_">
			<path id="XMLID_722_" class="st15" d="M380.53,69.36c-0.39,0.39-1.02,0.39-1.4,0c-0.39-0.39-0.39-1.02,0-1.4
				c0.39-0.39,1.02-0.39,1.4,0C380.91,68.34,380.91,68.97,380.53,69.36z"/>
			<circle id="XMLID_721_" class="st15" cx="390.83" cy="79.66" r="0.99"/>
			<circle id="XMLID_720_" class="st15" cx="401.83" cy="90.67" r="0.99"/>
			<circle id="XMLID_719_" class="st15" cx="412.84" cy="101.67" r="0.99"/>
			<path id="XMLID_718_" class="st15" d="M424.55,113.38c-0.39,0.39-1.02,0.39-1.4,0c-0.39-0.39-0.39-1.02,0-1.4
				c0.39-0.39,1.02-0.39,1.4,0C424.93,112.36,424.93,112.99,424.55,113.38z"/>
		</g>
		<g id="XMLID_699_">
			<path id="XMLID_710_" class="st15" d="M370.69,79.19c-0.39,0.39-1.02,0.39-1.4,0c-0.39-0.39-0.39-1.02,0-1.4
				c0.39-0.39,1.02-0.39,1.4,0C371.08,78.18,371.08,78.81,370.69,79.19z"/>
			<path id="XMLID_709_" class="st15" d="M381.7,90.2c-0.39,0.39-1.02,0.39-1.4,0c-0.39-0.39-0.39-1.02,0-1.4
				c0.39-0.39,1.02-0.39,1.4,0C382.09,89.18,382.09,89.81,381.7,90.2z"/>
			<circle id="XMLID_708_" class="st15" cx="392" cy="100.5" r="0.99"/>
			<path id="XMLID_707_" class="st15" d="M403.71,112.21c-0.39,0.39-1.02,0.39-1.4,0c-0.39-0.39-0.39-1.02,0-1.4
				c0.39-0.39,1.02-0.39,1.4,0C404.1,111.19,404.1,111.82,403.71,112.21z"/>
			<path id="XMLID_706_" class="st15" d="M414.71,123.21c-0.39,0.39-1.02,0.39-1.4,0c-0.39-0.39-0.39-1.02,0-1.4s1.02-0.39,1.4,0
				C415.1,122.19,415.1,122.82,414.71,123.21z"/>
		</g>
		<g id="XMLID_687_">
			<path id="XMLID_698_" class="st15" d="M360.86,89.03c-0.39,0.39-1.02,0.39-1.4,0c-0.39-0.39-0.39-1.02,0-1.4
				c0.39-0.39,1.02-0.39,1.4,0C361.25,88.01,361.25,88.64,360.86,89.03z"/>
			<circle id="XMLID_697_" class="st15" cx="371.16" cy="99.33" r="0.99"/>
			<circle id="XMLID_696_" class="st15" cx="382.17" cy="110.33" r="0.99"/>
			<circle id="XMLID_695_" class="st15" cx="393.17" cy="121.34" r="0.99"/>
			<path id="XMLID_694_" class="st15" d="M404.88,133.05c-0.39,0.39-1.02,0.39-1.4,0c-0.39-0.39-0.39-1.02,0-1.4
				c0.39-0.39,1.02-0.39,1.4,0C405.27,132.03,405.27,132.66,404.88,133.05z"/>
		</g>
		<g id="XMLID_675_">
			<path id="XMLID_686_" class="st15" d="M351.02,98.86c-0.39,0.39-1.02,0.39-1.4,0c-0.39-0.39-0.39-1.02,0-1.4
				c0.39-0.39,1.02-0.39,1.4,0C351.41,97.84,351.41,98.47,351.02,98.86z"/>
			<circle id="XMLID_685_" class="st15" cx="361.33" cy="109.16" r="0.99"/>
			<circle id="XMLID_684_" class="st15" cx="372.33" cy="120.17" r="0.99"/>
			<circle id="XMLID_683_" class="st15" cx="383.34" cy="131.17" r="0.99"/>
			<path id="XMLID_682_" class="st15" d="M395.04,142.88c-0.39,0.39-1.02,0.39-1.4,0c-0.39-0.39-0.39-1.02,0-1.4
				c0.39-0.39,1.02-0.39,1.4,0C395.43,141.86,395.43,142.49,395.04,142.88z"/>
		</g>
	</g>
	<path id="XMLID_21_" class="st16" d="M456.47,346.34h51.32c0.81,0,1.47,0.66,1.47,1.47v51.32c0,0.81-0.66,1.47-1.47,1.47h-51.32
		c-0.81,0-1.47-0.66-1.47-1.47v-51.32C455,347,455.66,346.34,456.47,346.34z"/>
	<g id="XMLID_135_" class="st7">
		<g id="XMLID_166_">
			<path id="XMLID_20_" class="st15" d="M513.93,409.68c0-0.47,0.38-0.85,0.85-0.85c0.47,0,0.85,0.38,0.85,0.85
				c0,0.47-0.38,0.85-0.85,0.85C514.31,410.53,513.93,410.15,513.93,409.68z"/>
			<path id="XMLID_19_" class="st15" d="M500.62,409.68c0-0.47,0.38-0.85,0.85-0.85s0.85,0.38,0.85,0.85c0,0.47-0.38,0.85-0.85,0.85
				S500.62,410.15,500.62,409.68z"/>
			<path id="XMLID_18_" class="st15" d="M487.31,409.68c0-0.47,0.38-0.85,0.85-0.85c0.47,0,0.85,0.38,0.85,0.85
				c0,0.47-0.38,0.85-0.85,0.85C487.69,410.53,487.31,410.15,487.31,409.68z"/>
			<path id="XMLID_17_" class="st15" d="M474,409.68c0-0.47,0.38-0.85,0.85-0.85s0.85,0.38,0.85,0.85c0,0.47-0.38,0.85-0.85,0.85
				S474,410.15,474,409.68z"/>
			<path id="XMLID_167_" class="st15" d="M460.69,409.68c0-0.47,0.38-0.85,0.85-0.85c0.47,0,0.85,0.38,0.85,0.85
				c0,0.47-0.38,0.85-0.85,0.85C461.07,410.53,460.69,410.15,460.69,409.68z"/>
		</g>
		<g id="XMLID_160_">
			<path id="XMLID_165_" class="st15" d="M513.93,397.79c0-0.47,0.38-0.85,0.85-0.85c0.47,0,0.85,0.38,0.85,0.85
				c0,0.47-0.38,0.85-0.85,0.85C514.31,398.64,513.93,398.26,513.93,397.79z"/>
			<path id="XMLID_164_" class="st15" d="M500.62,397.79c0-0.47,0.38-0.85,0.85-0.85s0.85,0.38,0.85,0.85
				c0,0.47-0.38,0.85-0.85,0.85S500.62,398.26,500.62,397.79z"/>
			<path id="XMLID_163_" class="st15" d="M487.31,397.79c0-0.47,0.38-0.85,0.85-0.85c0.47,0,0.85,0.38,0.85,0.85
				c0,0.47-0.38,0.85-0.85,0.85C487.69,398.64,487.31,398.26,487.31,397.79z"/>
			<path id="XMLID_162_" class="st15" d="M474,397.79c0-0.47,0.38-0.85,0.85-0.85s0.85,0.38,0.85,0.85c0,0.47-0.38,0.85-0.85,0.85
				S474,398.26,474,397.79z"/>
			<path id="XMLID_161_" class="st15" d="M460.69,397.79c0-0.47,0.38-0.85,0.85-0.85c0.47,0,0.85,0.38,0.85,0.85
				c0,0.47-0.38,0.85-0.85,0.85C461.07,398.64,460.69,398.26,460.69,397.79z"/>
		</g>
		<g id="XMLID_154_">
			<path id="XMLID_159_" class="st15" d="M513.93,385.89c0-0.47,0.38-0.85,0.85-0.85c0.47,0,0.85,0.38,0.85,0.85
				c0,0.47-0.38,0.85-0.85,0.85C514.31,386.74,513.93,386.36,513.93,385.89z"/>
			<circle id="XMLID_158_" class="st15" cx="501.47" cy="385.89" r="0.85"/>
			<circle id="XMLID_157_" class="st15" cx="488.16" cy="385.89" r="0.85"/>
			<path id="XMLID_156_" class="st15" d="M474,385.89c0-0.47,0.38-0.85,0.85-0.85s0.85,0.38,0.85,0.85c0,0.47-0.38,0.85-0.85,0.85
				S474,386.36,474,385.89z"/>
			<path id="XMLID_155_" class="st15" d="M460.69,385.89c0-0.47,0.38-0.85,0.85-0.85c0.47,0,0.85,0.38,0.85,0.85
				c0,0.47-0.38,0.85-0.85,0.85C461.07,386.74,460.69,386.36,460.69,385.89z"/>
		</g>
		<g id="XMLID_16_">
			<path id="XMLID_153_" class="st15" d="M513.93,374c0-0.47,0.38-0.85,0.85-0.85c0.47,0,0.85,0.38,0.85,0.85s-0.38,0.85-0.85,0.85
				C514.31,374.85,513.93,374.47,513.93,374z"/>
			<circle id="XMLID_152_" class="st15" cx="501.47" cy="374" r="0.85"/>
			<circle id="XMLID_151_" class="st15" cx="488.16" cy="374" r="0.85"/>
			<path id="XMLID_150_" class="st15" d="M474,374c0-0.47,0.38-0.85,0.85-0.85s0.85,0.38,0.85,0.85s-0.38,0.85-0.85,0.85
				S474,374.47,474,374z"/>
			<path id="XMLID_149_" class="st15" d="M460.69,374c0-0.47,0.38-0.85,0.85-0.85c0.47,0,0.85,0.38,0.85,0.85s-0.38,0.85-0.85,0.85
				C461.07,374.85,460.69,374.47,460.69,374z"/>
		</g>
		<g id="XMLID_142_">
			<path id="XMLID_147_" class="st15" d="M513.93,362.11c0-0.47,0.38-0.85,0.85-0.85c0.47,0,0.85,0.38,0.85,0.85
				c0,0.47-0.38,0.85-0.85,0.85C514.31,362.96,513.93,362.58,513.93,362.11z"/>
			<circle id="XMLID_146_" class="st15" cx="501.47" cy="362.11" r="0.85"/>
			<circle id="XMLID_145_" class="st15" cx="488.16" cy="362.11" r="0.85"/>
			<path id="XMLID_144_" class="st15" d="M474,362.11c0-0.47,0.38-0.85,0.85-0.85s0.85,0.38,0.85,0.85c0,0.47-0.38,0.85-0.85,0.85
				S474,362.58,474,362.11z"/>
			<path id="XMLID_143_" class="st15" d="M460.69,362.11c0-0.47,0.38-0.85,0.85-0.85c0.47,0,0.85,0.38,0.85,0.85
				c0,0.47-0.38,0.85-0.85,0.85C461.07,362.96,460.69,362.58,460.69,362.11z"/>
		</g>
		<g id="XMLID_136_">
			<path id="XMLID_141_" class="st15" d="M513.93,350.21c0-0.47,0.38-0.85,0.85-0.85c0.47,0,0.85,0.38,0.85,0.85
				c0,0.47-0.38,0.85-0.85,0.85C514.31,351.06,513.93,350.68,513.93,350.21z"/>
			<path id="XMLID_140_" class="st15" d="M500.62,350.21c0-0.47,0.38-0.85,0.85-0.85s0.85,0.38,0.85,0.85
				c0,0.47-0.38,0.85-0.85,0.85S500.62,350.68,500.62,350.21z"/>
			<path id="XMLID_139_" class="st15" d="M487.31,350.21c0-0.47,0.38-0.85,0.85-0.85c0.47,0,0.85,0.38,0.85,0.85
				c0,0.47-0.38,0.85-0.85,0.85C487.69,351.06,487.31,350.68,487.31,350.21z"/>
			<path id="XMLID_138_" class="st15" d="M474,350.21c0-0.47,0.38-0.85,0.85-0.85s0.85,0.38,0.85,0.85c0,0.47-0.38,0.85-0.85,0.85
				S474,350.68,474,350.21z"/>
			<path id="XMLID_137_" class="st15" d="M460.69,350.21c0-0.47,0.38-0.85,0.85-0.85c0.47,0,0.85,0.38,0.85,0.85
				c0,0.47-0.38,0.85-0.85,0.85C461.07,351.06,460.69,350.68,460.69,350.21z"/>
		</g>
	</g>
	<polyline id="XMLID_367_" class="st17" points="150.75,160.02 179.12,180.03 207.51,160.04 	"/>
	<polyline id="XMLID_399_" class="st17" points="37.25,159.98 65.62,179.99 94,160 122.37,180.01 	"/>
	<line id="XMLID_50_" class="st17" x1="-19.49" y1="159.96" x2="8.88" y2="179.97"/>
	<polyline id="XMLID_400_" class="st18" points="122.38,162.01 150.76,142.02 179.13,162.03 207.51,142.04 	"/>
	<polyline id="XMLID_53_" class="st18" points="-19.49,141.96 8.88,161.97 37.26,141.98 65.63,161.99 94.01,142 	"/>
	<polyline id="XMLID_57_" class="st17" points="649.51,251 677.88,271 706.25,251 734.63,271 763,251 791.38,271 819.75,251 
		848.13,271 876.51,251 	"/>
	<polyline id="XMLID_56_" class="st18" points="649.51,233 677.88,253 706.25,233 734.63,253 763,233 791.38,253 819.75,233 
		848.13,253 876.51,233 	"/>
	<circle id="XMLID_108_" class="st5" cx="276.08" cy="451.42" r="28.5"/>
	<circle id="XMLID_60_" class="st19" cx="265.83" cy="441.17" r="28.5"/>
	<circle id="XMLID_38_" class="st19" cx="265.83" cy="441.17" r="13.75"/>
	<circle id="XMLID_112_" class="st5" cx="55.33" cy="98.33" r="17.2"/>
	<circle id="XMLID_111_" class="st17" cx="49.15" cy="92.15" r="17.2"/>
	<path id="XMLID_113_" class="st20" d="M536.63,243.92l-34.36,34.36c-0.54,0.54-1.43,0.54-1.97,0l-34.36-34.36
		c-0.54-0.54-0.54-1.43,0-1.97l34.36-34.36c0.54-0.54,1.43-0.54,1.97,0l34.36,34.36C537.18,242.5,537.18,243.38,536.63,243.92z"/>
	<path id="XMLID_114_" class="st20" d="M521.5,243.5l-19.64,19.64c-0.31,0.31-0.82,0.31-1.13,0l-19.64-19.64
		c-0.31-0.31-0.31-0.82,0-1.13l19.64-19.64c0.31-0.31,0.82-0.31,1.13,0l19.64,19.64C521.81,242.68,521.81,243.19,521.5,243.5z"/>
	<path id="XMLID_119_" class="st21" d="M178.75,333.69l-24.06,24.06c-0.38,0.38-1,0.38-1.38,0l-24.06-24.06
		c-0.38-0.38-0.38-1,0-1.38l24.06-24.06c0.38-0.38,1-0.38,1.38,0l24.06,24.06C179.13,332.69,179.13,333.31,178.75,333.69z"/>
	<path id="XMLID_118_" class="st22" d="M166.43,335.11l-10.31,10.31c-1.17,1.17-3.06,1.17-4.23,0l-10.31-10.31
		c-1.17-1.17-1.17-3.06,0-4.23l10.31-10.31c1.17-1.17,3.06-1.17,4.23,0l10.31,10.31C167.6,332.05,167.6,333.95,166.43,335.11z"/>
	<path id="XMLID_408_" class="st16" d="M362.04,157.23l-18.62,18.62c-0.29,0.29-0.77,0.29-1.07,0l-18.62-18.62
		c-0.29-0.29-0.29-0.77,0-1.07l18.62-18.62c0.29-0.29,0.77-0.29,1.07,0l18.62,18.62C362.33,156.46,362.33,156.94,362.04,157.23z"/>
	<path id="XMLID_407_" class="st23" d="M352.5,158.33l-7.98,7.98c-0.9,0.9-2.37,0.9-3.27,0l-7.98-7.98c-0.9-0.9-0.9-2.37,0-3.27
		l7.98-7.98c0.9-0.9,2.37-0.9,3.27,0l7.98,7.98C353.4,155.96,353.4,157.43,352.5,158.33z"/>
	<path id="XMLID_120_" class="st24" d="M511.19,4.27L486.5,28.96c-0.39,0.39-1.02,0.39-1.42,0L460.4,4.27
		c-0.39-0.39-0.39-1.02,0-1.42l24.69-24.69c0.39-0.39,1.02-0.39,1.42,0l24.69,24.69C511.58,3.25,511.58,3.88,511.19,4.27z"/>
	<path id="XMLID_116_" class="st22" d="M500.31,3.97L486.2,18.08c-0.22,0.22-0.59,0.22-0.81,0L471.27,3.97
		c-0.22-0.22-0.22-0.59,0-0.81l14.12-14.12c0.22-0.22,0.59-0.22,0.81,0l14.12,14.12C500.54,3.38,500.54,3.74,500.31,3.97z"/>
	<line id="XMLID_15_" class="st17" x1="290.66" y1="341.65" x2="477.34" y2="528.33"/>
	<line id="XMLID_412_" class="st17" x1="479.34" y1="131" x2="519.67" y2="171.33"/>
	<line id="XMLID_413_" class="st17" x1="617.34" y1="88" x2="639.17" y2="109.83"/>
	<line id="XMLID_419_" class="st18" x1="369.5" y1="-20.5" x2="409.34" y2="19.33"/>
	<line id="XMLID_414_" class="st18" x1="166.03" y1="406.15" x2="187.86" y2="427.98"/>
	<line id="XMLID_415_" class="st18" x1="276.1" y1="149.56" x2="330.86" y2="204.32"/>
	<line id="XMLID_409_" class="st18" x1="343.33" y1="424.99" x2="530" y2="611.66"/>
	<line id="XMLID_411_" class="st18" x1="670.33" y1="450.99" x2="857" y2="637.66"/>
	<line id="XMLID_357_" class="st17" x1="687.66" y1="320.65" x2="874.34" y2="507.33"/>
	<line id="XMLID_358_" class="st18" x1="718.16" y1="330.15" x2="904.84" y2="516.83"/>
	<line id="XMLID_27_" class="st18" x1="56" y1="-129.66" x2="242.68" y2="57.02"/>
	<line id="XMLID_447_" class="st17" x1="0" y1="-153.66" x2="186.68" y2="33.02"/>
	<polygon id="XMLID_28_" class="st22" points="408.03,226.83 390,244.86 371.97,226.83 357.83,240.97 375.86,259 357.83,277.03 
		371.97,291.17 390,273.14 408.03,291.17 422.17,277.03 404.14,259 422.17,240.97 	"/>
	<polygon id="XMLID_30_" class="st18" points="405.7,213.16 387.67,231.19 369.64,213.16 355.49,227.3 373.52,245.33 355.49,263.36 
		369.64,277.51 387.67,259.48 405.7,277.51 419.84,263.36 401.81,245.33 419.84,227.3 	"/>
	<polygon id="XMLID_33_" class="st22" points="142,44 134,52 126,44 119.73,50.28 127.73,58.27 119.73,66.27 126,72.54 134,64.54 
		142,72.54 148.27,66.27 140.27,58.27 148.27,50.28 	"/>
	<polygon id="XMLID_32_" class="st25" points="140.96,37.94 132.97,45.94 124.97,37.94 118.7,44.22 126.69,52.21 118.34,60.39 
		124.61,66.66 132.97,58.48 140.96,66.48 147.23,60.21 139.24,52.21 147.23,44.22 	"/>
	<polygon id="XMLID_133_" class="st22" points="596.36,253.86 588.37,261.85 580.37,253.86 574.1,260.13 582.1,268.12 574.1,276.12 
		580.37,282.39 588.37,274.39 596.36,282.39 602.63,276.12 594.64,268.12 602.63,260.13 	"/>
	<polygon id="XMLID_132_" class="st25" points="595.33,247.8 587.33,255.79 579.34,247.8 573.07,254.07 581.06,262.06 
		573.06,270.27 579.33,276.54 587.33,268.33 595.33,276.33 601.6,270.06 593.6,262.06 601.6,254.07 	"/>
	<polygon id="XMLID_37_" class="st5" points="208.54,365.79 249.27,329.62 245.3,387.75 	"/>
	<g id="XMLID_29_" class="st7">
		<polygon id="XMLID_34_" class="st8" points="200.83,352.5 244.17,319.5 235.83,377.17 		"/>
		<path id="XMLID_35_" class="st8" d="M244.17,319.5c-0.67,0.83-21.5,34.17-21.5,34.17l13.17,23.5L244.17,319.5z"/>
		<polygon id="XMLID_36_" class="st8" points="200.83,352.5 222.67,353.67 244.17,319.5 		"/>
	</g>
	<polygon id="XMLID_405_" class="st5" points="635.29,183.31 688.1,169.98 657.8,219.74 	"/>
	<g id="XMLID_40_" class="st7">
		<polygon id="XMLID_404_" class="st8" points="634.58,167.97 688.24,158.65 654.27,205.99 		"/>
		<path id="XMLID_403_" class="st8" d="M688.24,158.65c-0.98,0.43-34.83,20.42-34.83,20.42l0.86,26.92L688.24,158.65z"/>
		<polygon id="XMLID_41_" class="st8" points="634.58,167.97 653.41,179.06 688.24,158.65 		"/>
	</g>
	<path id="XMLID_42_" class="st26" d="M272.64,283.55c6.93-6.93,18.17-6.93,25.1,0c6.93,6.93,6.93,18.17,0,25.1"/>
	<path id="XMLID_48_" class="st27" d="M509.76,79.12c6.93,6.93,6.93,18.17,0,25.1c-6.93,6.93-18.17,6.93-25.1,0"/>
	<path id="XMLID_47_" class="st17" d="M510,79.35c6.93,6.93,6.93,18.17,0,25.1c-6.93,6.93-18.17,6.93-25.1,0"/>
	<path id="XMLID_130_" class="st27" d="M130.76,520.32c-6.93-6.93-6.93-18.17,0-25.1c6.93-6.93,18.17-6.93,25.1,0"/>
	<path id="XMLID_129_" class="st17" d="M130.52,520.08c-6.93-6.93-6.93-18.17,0-25.1c6.93-6.93,18.17-6.93,25.1,0"/>
	<path id="XMLID_45_" class="st28" d="M436.01,187.32c-4.59-8.66-1.28-19.41,7.38-23.99c8.66-4.59,19.41-1.28,23.99,7.38"/>
	<path id="XMLID_122_" class="st29" d="M272.82-9.69c6.93-6.93,18.17-6.93,25.1,0s6.93,18.17,0,25.1"/>
	<g id="XMLID_125_" class="st7">
		<path id="XMLID_126_" class="st4" d="M593.93,477.75c-2.46,0-4.92-0.94-6.79-2.81c-3.75-3.75-3.75-9.84,0-13.59
			c5.12-5.12,5.12-13.45,0-18.57c-5.12-5.12-13.45-5.12-18.57,0c-3.75,3.75-9.84,3.75-13.59,0c-3.75-3.75-3.75-9.84,0-13.59
			c12.61-12.61,33.14-12.61,45.75,0c12.61,12.61,12.61,33.14,0,45.75C598.85,476.81,596.39,477.75,593.93,477.75z"/>
	</g>
	<g id="XMLID_123_" class="st7">
		<path id="XMLID_124_" class="st30" d="M599.69,471.99c-2.46,0-4.92-0.94-6.79-2.81c-3.75-3.75-3.75-9.84,0-13.59
			c5.12-5.12,5.12-13.45,0-18.57c-5.12-5.12-13.45-5.12-18.57,0c-3.75,3.75-9.84,3.75-13.59,0c-3.75-3.75-3.75-9.84,0-13.59
			c12.61-12.61,33.14-12.61,45.75,0c12.61,12.61,12.61,33.14,0,45.75C604.61,471.05,602.15,471.99,599.69,471.99z"/>
	</g>
	<g id="XMLID_127_" class="st7">
		<path id="XMLID_210_" class="st4" d="M288.86,125.4c-0.13-1.05,0.62-2.02,1.68-2.14l0,0c1.06-0.13,2.02,0.62,2.14,1.68l0,0
			c0.13,1.05-0.62,2.02-1.68,2.14l0,0c-0.08,0.01-0.16,0.01-0.24,0.01l0,0C289.81,127.09,288.98,126.38,288.86,125.4z
			 M276.67,125.36c-1-0.38-1.5-1.49-1.12-2.48l0,0c0.37-0.99,1.48-1.5,2.48-1.12l0,0c0.99,0.38,1.5,1.49,1.12,2.48l0,0
			c-0.3,0.77-1.03,1.25-1.8,1.25l0,0C277.13,125.48,276.9,125.44,276.67,125.36z M301.82,121.46c-0.6-0.87-0.39-2.07,0.49-2.68l0,0
			c0.87-0.6,2.07-0.39,2.68,0.49l0,0c0.61,0.87,0.39,2.07-0.48,2.68l0,0c-0.34,0.23-0.72,0.34-1.1,0.34l0,0
			C302.79,122.29,302.19,122,301.82,121.46z M264.79,117.17c-0.71-0.8-0.64-2.02,0.15-2.72l0,0c0.8-0.71,2.02-0.64,2.72,0.16l0,0
			c0.71,0.8,0.64,2.02-0.16,2.72l0,0c-0.37,0.33-0.82,0.49-1.28,0.49l0,0C265.69,117.82,265.17,117.6,264.79,117.17z M311.47,111.96
			c-0.94-0.5-1.3-1.66-0.81-2.61l0,0c0.49-0.94,1.66-1.3,2.6-0.81l0,0c0.94,0.49,1.3,1.66,0.81,2.6l0,0
			c-0.35,0.66-1.01,1.03-1.71,1.03l0,0C312.06,112.18,311.75,112.1,311.47,111.96z M258.05,104.4c-0.25-1.03,0.38-2.08,1.41-2.33
			l0,0c1.03-0.26,2.07,0.37,2.33,1.41l0,0c0.26,1.03-0.38,2.07-1.41,2.33l0,0c-0.15,0.04-0.31,0.06-0.47,0.06l0,0
			C259.06,105.86,258.27,105.27,258.05,104.4z M313.66,97.13c0-0.02,0-0.04,0-0.05l0,0c0-0.02,0-0.04,0-0.05l0,0
			c-0.01-1.07,0.85-1.93,1.92-1.93l0,0c1.07-0.01,1.93,0.85,1.93,1.91l0,0c0,0.03,0,0.04,0,0.06l0,0c0,0.02,0,0.04,0,0.06l0,0
			c0,1.07-0.86,1.93-1.93,1.93l0,0C314.52,99.05,313.66,98.19,313.66,97.13z M259.44,92.29c-1.03-0.25-1.67-1.29-1.42-2.32l0,0
			c0.25-1.03,1.3-1.67,2.33-1.42l0,0c1.03,0.25,1.66,1.3,1.41,2.33l0,0c-0.21,0.88-1,1.47-1.87,1.47l0,0
			C259.74,92.35,259.6,92.33,259.44,92.29z M310.61,84.81c-0.49-0.94-0.13-2.1,0.8-2.6l0,0c0.94-0.5,2.11-0.14,2.6,0.8l0,0
			c0.5,0.94,0.14,2.11-0.8,2.61l0,0c-0.29,0.15-0.6,0.22-0.9,0.22l0,0C311.62,85.84,310.95,85.46,310.61,84.81z M264.88,79.89
			c-0.8-0.71-0.87-1.92-0.17-2.72l0,0c0.7-0.8,1.92-0.87,2.72-0.17l0,0c0.8,0.71,0.87,1.92,0.17,2.72l0,0
			c-0.39,0.43-0.91,0.65-1.45,0.65l0,0C265.7,80.37,265.25,80.21,264.88,79.89z M302.22,75.41c-0.88-0.6-1.1-1.8-0.5-2.68l0,0
			c0.6-0.87,1.8-1.1,2.68-0.49l0,0c0.88,0.6,1.1,1.8,0.5,2.68l0,0c-0.37,0.55-0.98,0.83-1.59,0.83l0,0
			C302.93,75.75,302.56,75.64,302.22,75.41z M275.45,71.42c-0.38-1,0.12-2.11,1.11-2.48l0,0l0,0l0,0c0.99-0.38,2.11,0.12,2.49,1.11
			l0,0c0.38,0.99-0.12,2.11-1.11,2.48l0,0c-0.23,0.09-0.46,0.13-0.69,0.13l0,0C276.48,72.66,275.75,72.19,275.45,71.42z
			 M290.44,70.99c-1.05-0.12-1.81-1.08-1.69-2.14l0,0c0.12-1.05,1.08-1.81,2.14-1.69l0,0l0,0l0,0c1.06,0.12,1.81,1.08,1.69,2.14l0,0
			c-0.12,0.98-0.94,1.7-1.91,1.7l0,0C290.59,71,290.51,70.99,290.44,70.99z"/>
	</g>
	<g id="XMLID_14_" class="st7">
		<path id="XMLID_196_" class="st4" d="M288.59,120.26c-0.11-0.86,0.51-1.65,1.37-1.75l0,0c0.86-0.1,1.65,0.51,1.75,1.37l0,0
			c0.1,0.87-0.51,1.65-1.37,1.75l0,0c-0.06,0.01-0.13,0.01-0.19,0.01l0,0C289.36,121.64,288.68,121.06,288.59,120.26z
			 M278.61,120.23c-0.82-0.31-1.23-1.22-0.91-2.03l0,0c0.3-0.82,1.21-1.23,2.03-0.92l0,0c0.82,0.31,1.23,1.22,0.92,2.03l0,0
			c-0.24,0.64-0.84,1.02-1.48,1.02l0,0C278.98,120.33,278.8,120.3,278.61,120.23z M299.19,117.04c-0.49-0.72-0.31-1.7,0.4-2.2l0,0
			c0.72-0.49,1.69-0.31,2.2,0.4l0,0c0.49,0.71,0.31,1.7-0.4,2.2l0,0c-0.28,0.19-0.59,0.28-0.9,0.28l0,0
			C299.98,117.72,299.49,117.48,299.19,117.04z M268.89,113.52c-0.58-0.65-0.52-1.64,0.13-2.22l0,0c0.65-0.58,1.64-0.52,2.22,0.13
			l0,0c0.58,0.65,0.52,1.64-0.13,2.23l0,0c-0.3,0.26-0.67,0.4-1.05,0.4l0,0C269.63,114.06,269.2,113.88,268.89,113.52z
			 M307.08,109.26c-0.77-0.41-1.07-1.36-0.66-2.13l0,0c0.4-0.77,1.35-1.07,2.12-0.66l0,0c0.77,0.4,1.07,1.36,0.66,2.12l0,0
			c-0.28,0.54-0.83,0.85-1.39,0.85l0,0C307.56,109.44,307.31,109.38,307.08,109.26z M263.38,103.08c-0.21-0.85,0.31-1.7,1.15-1.91
			l0,0c0.85-0.21,1.7,0.3,1.91,1.15l0,0c0.21,0.84-0.31,1.7-1.16,1.91l0,0c-0.13,0.03-0.25,0.04-0.38,0.04l0,0
			C264.2,104.27,263.56,103.8,263.38,103.08z M308.87,97.13L308.87,97.13c0.01-0.01,0.01-0.01,0.01-0.03l0,0
			c0-0.02-0.01-0.04-0.01-0.06l0,0c0-0.87,0.7-1.58,1.57-1.59l0,0c0.87,0,1.58,0.7,1.58,1.57l0,0c0,0.02,0,0.03,0,0.05l0,0
			c0,0.01,0,0.03,0,0.05l0,0c0,0.87-0.7,1.58-1.57,1.58l0,0C309.58,98.71,308.87,98,308.87,97.13z M264.51,93.17
			c-0.85-0.21-1.37-1.06-1.16-1.91l0,0c0,0,0,0-0.01,0l0,0c0.21-0.84,1.06-1.36,1.91-1.16l0,0c0.85,0.21,1.36,1.06,1.16,1.91l0,0
			c-0.18,0.72-0.82,1.2-1.53,1.2l0,0C264.76,93.22,264.64,93.21,264.51,93.17z M306.38,87.05c-0.4-0.77-0.12-1.72,0.65-2.13l0,0
			c0.77-0.4,1.72-0.12,2.13,0.65l0,0c0.41,0.77,0.12,1.73-0.65,2.13l0,0c-0.23,0.12-0.49,0.19-0.74,0.19l0,0
			C307.21,87.89,306.66,87.58,306.38,87.05z M268.96,83.02c-0.65-0.57-0.71-1.57-0.13-2.22l0,0c0.57-0.65,1.57-0.72,2.22-0.14l0,0
			c0.65,0.58,0.71,1.57,0.14,2.23l0,0c-0.31,0.35-0.75,0.53-1.19,0.53l0,0C269.64,83.42,269.26,83.29,268.96,83.02z M299.51,79.36
			c-0.72-0.49-0.9-1.48-0.4-2.2l0,0c0.49-0.72,1.47-0.9,2.19-0.4l0,0l0,0l0,0c0.72,0.49,0.9,1.47,0.41,2.19l0,0
			c-0.31,0.44-0.8,0.69-1.3,0.69l0,0C300.1,79.64,299.79,79.55,299.51,79.36z M277.62,76.1c-0.31-0.81,0.1-1.72,0.91-2.03l0,0
			c0.82-0.31,1.73,0.1,2.03,0.91l0,0c0.31,0.81-0.1,1.72-0.9,2.03l0,0c-0.19,0.07-0.38,0.1-0.57,0.1l0,0
			C278.45,77.11,277.85,76.73,277.62,76.1z M289.88,75.74c-0.87-0.1-1.48-0.88-1.39-1.75l0,0c0.1-0.87,0.89-1.48,1.75-1.38l0,0
			c0.86,0.1,1.48,0.89,1.38,1.75l0,0c-0.1,0.8-0.78,1.39-1.57,1.39l0,0C290,75.75,289.94,75.75,289.88,75.74z"/>
	</g>
	<g id="XMLID_2_" class="st7">
		<path id="XMLID_3_" class="st4" d="M288.35,115.87c-0.08-0.7,0.41-1.34,1.11-1.42l0,0c0.7-0.08,1.34,0.41,1.43,1.12l0,0
			c0.08,0.69-0.42,1.34-1.12,1.42l0,0c-0.05,0.01-0.1,0.01-0.15,0.01l0,0C288.98,116.99,288.43,116.51,288.35,115.87z
			 M280.27,115.84L280.27,115.84L280.27,115.84c-0.66-0.25-0.99-0.99-0.74-1.64l0,0c0.25-0.66,0.98-0.99,1.64-0.74l0,0
			c0.66,0.25,0.99,0.99,0.74,1.64l0,0c-0.19,0.51-0.68,0.83-1.19,0.83l0,0C280.57,115.92,280.41,115.9,280.27,115.84z
			 M296.94,113.26c-0.4-0.58-0.26-1.37,0.32-1.78l0,0c0.58-0.4,1.37-0.26,1.78,0.32l0,0c0.4,0.58,0.26,1.38-0.32,1.78l0,0
			c-0.22,0.15-0.47,0.22-0.73,0.22l0,0C297.58,113.81,297.18,113.62,296.94,113.26z M272.39,110.41c-0.47-0.53-0.42-1.33,0.1-1.8
			l0,0c0.53-0.47,1.34-0.42,1.8,0.1l0,0c0.47,0.53,0.42,1.34-0.1,1.8l0,0c-0.24,0.21-0.55,0.32-0.85,0.32l0,0
			C272.99,110.84,272.64,110.7,272.39,110.41z M303.33,106.96c-0.62-0.33-0.87-1.1-0.53-1.73l0,0c0.33-0.62,1.1-0.86,1.72-0.53l0,0
			c0.62,0.33,0.87,1.1,0.54,1.72l0,0c-0.23,0.44-0.67,0.69-1.14,0.69l0,0C303.72,107.1,303.53,107.05,303.33,106.96z M267.93,101.95
			c-0.17-0.69,0.24-1.38,0.93-1.55l0,0c0.68-0.17,1.37,0.25,1.55,0.93l0,0c0.17,0.69-0.25,1.38-0.94,1.55l0,0
			c-0.1,0.03-0.21,0.04-0.3,0.04l0,0C268.59,102.92,268.07,102.53,267.93,101.95z M304.79,97.13c0-0.01,0-0.03,0-0.04l0,0
			c0-0.01,0-0.02,0-0.03l0,0c-0.01-0.71,0.57-1.28,1.27-1.28l0,0c0.71-0.01,1.28,0.56,1.28,1.27l0,0l0,0l0,0
			c0,0.01-0.01,0.03-0.01,0.04l0,0c0,0.01,0.01,0.03,0.01,0.04l0,0c0,0.71-0.58,1.28-1.28,1.28l0,0
			C305.36,98.41,304.79,97.83,304.79,97.13z M268.85,93.92c-0.69-0.17-1.1-0.86-0.94-1.54l0,0c0.17-0.69,0.85-1.1,1.54-0.94l0,0
			c0.69,0.17,1.1,0.86,0.94,1.55l0,0c-0.14,0.58-0.66,0.98-1.24,0.98l0,0C269.05,93.96,268.95,93.95,268.85,93.92z M302.77,88.96
			c-0.33-0.62-0.1-1.39,0.53-1.72l0,0c0.62-0.33,1.39-0.1,1.73,0.53l0,0c0.33,0.62,0.1,1.39-0.53,1.73l0,0
			c-0.19,0.1-0.4,0.15-0.6,0.15l0,0C303.44,89.64,302.99,89.4,302.77,88.96z M272.45,85.7c-0.53-0.47-0.58-1.27-0.12-1.8l0,0l0,0
			l0,0c0.47-0.53,1.27-0.58,1.8-0.12l0,0c0.53,0.47,0.58,1.27,0.11,1.8l0,0c-0.25,0.28-0.6,0.43-0.96,0.43l0,0
			C272.99,86.02,272.69,85.92,272.45,85.7z M297.2,82.73L297.2,82.73c-0.58-0.4-0.73-1.19-0.33-1.78l0,0
			c0.4-0.58,1.19-0.73,1.77-0.33l0,0c0.58,0.4,0.73,1.19,0.33,1.77l0,0c-0.25,0.37-0.65,0.56-1.05,0.56l0,0
			C297.68,82.96,297.43,82.88,297.2,82.73z M279.46,80.09c-0.25-0.66,0.08-1.4,0.74-1.65l0,0c0.66-0.25,1.4,0.08,1.65,0.74l0,0
			c0.25,0.65-0.08,1.39-0.74,1.65l0,0c-0.15,0.06-0.3,0.08-0.46,0.08l0,0C280.14,80.91,279.66,80.6,279.46,80.09z M289.4,79.8
			c-0.7-0.08-1.2-0.72-1.12-1.42l0,0c0.08-0.7,0.72-1.2,1.42-1.12l0,0c0.7,0.08,1.2,0.71,1.12,1.42l0,0
			c-0.07,0.65-0.62,1.12-1.26,1.12l0,0C289.49,79.81,289.45,79.81,289.4,79.8z"/>
	</g>
	<g id="XMLID_342_" class="st7">
		<path id="XMLID_343_" class="st4" d="M66.44,276.29c-0.12-0.99,0.58-1.89,1.57-2.01l0,0c0.99-0.12,1.89,0.58,2.01,1.58l0,0
			c0.12,0.99-0.58,1.89-1.57,2.01l0,0c-0.08,0.01-0.15,0.01-0.22,0.01l0,0C67.33,277.88,66.54,277.2,66.44,276.29z M55.01,276.25
			c-0.93-0.36-1.4-1.4-1.05-2.33l0,0c0.35-0.93,1.39-1.4,2.32-1.05l0,0c0.93,0.35,1.4,1.4,1.05,2.33l0,0
			c-0.28,0.72-0.96,1.17-1.69,1.17l0,0C55.44,276.37,55.22,276.33,55.01,276.25z M78.58,272.6c-0.57-0.82-0.36-1.94,0.46-2.52l0,0
			c0.82-0.57,1.94-0.36,2.51,0.46l0,0c0.57,0.82,0.37,1.94-0.45,2.52l0,0c-0.32,0.22-0.67,0.32-1.03,0.32l0,0
			C79.49,273.38,78.93,273.11,78.58,272.6z M43.87,268.57c-0.67-0.75-0.6-1.89,0.14-2.55l0,0c0.75-0.66,1.89-0.6,2.55,0.15l0,0
			c0.66,0.75,0.6,1.89-0.15,2.55l0,0c-0.34,0.31-0.77,0.46-1.2,0.46l0,0C44.72,269.18,44.23,268.98,43.87,268.57z M87.62,263.69
			c-0.88-0.47-1.22-1.56-0.76-2.44l0,0c0.46-0.88,1.55-1.22,2.44-0.76l0,0c0.88,0.46,1.22,1.56,0.76,2.44l0,0
			c-0.33,0.62-0.95,0.97-1.6,0.97l0,0C88.18,263.89,87.89,263.83,87.62,263.69z M37.55,256.6c-0.23-0.97,0.36-1.95,1.32-2.18l0,0
			c0.96-0.24,1.94,0.35,2.18,1.32l0,0c0.24,0.96-0.35,1.94-1.32,2.18l0,0c-0.14,0.04-0.29,0.05-0.44,0.05l0,0
			C38.5,257.98,37.76,257.42,37.55,256.6z M89.68,249.79c0-0.02,0-0.04,0-0.05l0,0c0-0.02,0-0.04,0-0.05l0,0
			c-0.01-1,0.8-1.81,1.8-1.81l0,0c1-0.01,1.81,0.8,1.81,1.79l0,0c0,0.02,0,0.04,0,0.06l0,0c0,0.02,0,0.04,0,0.05l0,0
			c0,1-0.81,1.81-1.81,1.81l0,0C90.49,251.59,89.68,250.79,89.68,249.79z M38.86,245.26c-0.97-0.23-1.56-1.21-1.33-2.18l0,0
			c0.23-0.97,1.22-1.56,2.18-1.33l0,0c0.97,0.23,1.56,1.22,1.32,2.18l0,0c-0.2,0.82-0.94,1.38-1.75,1.38l0,0
			C39.14,245.31,39,245.29,38.86,245.26z M86.82,238.24c-0.46-0.88-0.13-1.97,0.75-2.44l0,0c0.88-0.47,1.97-0.13,2.44,0.75l0,0
			c0.47,0.88,0.13,1.97-0.75,2.44l0,0c-0.27,0.14-0.56,0.21-0.84,0.21l0,0C87.77,239.2,87.14,238.85,86.82,238.24z M43.95,233.63
			c-0.75-0.66-0.82-1.8-0.16-2.55l0,0c0.66-0.75,1.8-0.82,2.55-0.16l0,0c0.75,0.66,0.82,1.8,0.16,2.55l0,0
			c-0.36,0.4-0.85,0.61-1.36,0.61l0,0C44.72,234.08,44.3,233.93,43.95,233.63z M78.96,229.43c-0.82-0.56-1.03-1.69-0.47-2.51l0,0
			c0.57-0.82,1.69-1.03,2.51-0.46l0,0c0.82,0.57,1.04,1.68,0.47,2.51l0,0c-0.35,0.51-0.91,0.78-1.49,0.78l0,0
			C79.63,229.75,79.27,229.65,78.96,229.43z M53.87,225.69c-0.36-0.93,0.11-1.97,1.04-2.33l0,0l0,0l0,0
			c0.93-0.35,1.97,0.11,2.33,1.04l0,0c0.35,0.93-0.11,1.97-1.04,2.33l0,0c-0.22,0.08-0.43,0.12-0.65,0.12l0,0
			C54.83,226.85,54.14,226.41,53.87,225.69z M67.91,225.28c-0.99-0.11-1.7-1.01-1.58-2l0,0c0.11-0.99,1.02-1.7,2-1.58l0,0l0,0l0,0
			c0.99,0.11,1.7,1.01,1.58,2l0,0c-0.11,0.92-0.88,1.59-1.79,1.59l0,0C68.06,225.3,67.98,225.29,67.91,225.28z"/>
	</g>
	<g id="XMLID_327_" class="st7">
		<path id="XMLID_328_" class="st4" d="M66.18,271.47c-0.1-0.81,0.48-1.55,1.29-1.64l0,0c0.81-0.1,1.55,0.48,1.64,1.29l0,0
			c0.1,0.81-0.48,1.55-1.29,1.64l0,0c-0.06,0.01-0.12,0.01-0.18,0.01l0,0C66.91,272.77,66.27,272.22,66.18,271.47z M56.83,271.44
			c-0.76-0.29-1.15-1.14-0.85-1.9l0,0c0.28-0.76,1.14-1.15,1.9-0.86l0,0c0.76,0.29,1.15,1.14,0.86,1.9l0,0
			c-0.23,0.6-0.79,0.96-1.38,0.96l0,0C57.18,271.53,57,271.5,56.83,271.44z M76.11,268.45c-0.46-0.67-0.29-1.59,0.37-2.06l0,0
			c0.67-0.46,1.59-0.29,2.06,0.37l0,0c0.46,0.67,0.29,1.59-0.37,2.06l0,0c-0.26,0.17-0.55,0.26-0.84,0.26l0,0
			C76.86,269.09,76.4,268.86,76.11,268.45z M47.71,265.16c-0.54-0.61-0.49-1.54,0.13-2.08l0,0c0.61-0.54,1.54-0.49,2.08,0.12l0,0
			c0.54,0.61,0.49,1.54-0.12,2.09l0,0c-0.28,0.25-0.63,0.37-0.98,0.37l0,0C48.41,265.66,48,265.49,47.71,265.16z M83.51,261.16
			c-0.72-0.39-1.01-1.28-0.62-2l0,0c0.38-0.72,1.27-1,1.99-0.62l0,0c0.72,0.38,1,1.28,0.62,1.99l0,0c-0.27,0.51-0.78,0.79-1.31,0.79
			l0,0C83.97,261.33,83.73,261.27,83.51,261.16z M42.55,255.37c-0.2-0.79,0.29-1.59,1.08-1.79l0,0c0.79-0.2,1.59,0.28,1.79,1.08l0,0
			c0.19,0.79-0.29,1.59-1.08,1.79l0,0c-0.12,0.03-0.23,0.04-0.35,0.04l0,0C43.32,256.48,42.71,256.04,42.55,255.37z M85.19,249.79
			L85.19,249.79c0.01-0.01,0.01-0.01,0.01-0.02l0,0c0-0.02-0.01-0.04-0.01-0.05l0,0c0-0.82,0.66-1.48,1.47-1.49l0,0
			c0.82,0,1.48,0.66,1.48,1.47l0,0c0,0.02,0,0.03,0,0.05l0,0c0,0.01,0,0.03,0,0.04l0,0c0,0.82-0.66,1.48-1.47,1.48l0,0
			C85.86,251.27,85.19,250.61,85.19,249.79z M43.61,246.08c-0.79-0.19-1.28-0.99-1.08-1.79l0,0c0,0,0,0-0.01,0l0,0
			c0.2-0.79,0.99-1.28,1.79-1.08l0,0c0.79,0.19,1.28,0.99,1.09,1.79l0,0c-0.17,0.67-0.77,1.12-1.44,1.12l0,0
			C43.85,246.12,43.73,246.11,43.61,246.08z M82.85,240.34c-0.38-0.72-0.11-1.61,0.61-2l0,0c0.72-0.38,1.61-0.11,2,0.61l0,0
			c0.39,0.72,0.11,1.62-0.61,2l0,0c-0.22,0.11-0.46,0.17-0.69,0.17l0,0C83.63,241.13,83.12,240.84,82.85,240.34z M47.78,236.57
			c-0.61-0.54-0.67-1.47-0.13-2.08l0,0c0.54-0.61,1.47-0.67,2.08-0.13l0,0c0.61,0.54,0.67,1.47,0.13,2.09l0,0
			c-0.3,0.33-0.7,0.5-1.11,0.5l0,0C48.41,236.94,48.06,236.81,47.78,236.57z M76.42,233.14c-0.67-0.46-0.84-1.38-0.38-2.06l0,0
			c0.46-0.67,1.38-0.84,2.05-0.38l0,0l0,0l0,0c0.67,0.46,0.84,1.38,0.39,2.05l0,0c-0.29,0.42-0.75,0.64-1.22,0.64l0,0
			C76.97,233.39,76.68,233.31,76.42,233.14z M55.89,230.07c-0.29-0.76,0.09-1.61,0.85-1.91l0,0c0.76-0.29,1.62,0.09,1.91,0.85l0,0
			c0.29,0.76-0.09,1.61-0.85,1.91l0,0c-0.17,0.07-0.36,0.1-0.53,0.1l0,0C56.68,231.02,56.12,230.66,55.89,230.07z M67.39,229.74
			c-0.81-0.09-1.39-0.82-1.3-1.64l0,0c0.1-0.81,0.83-1.39,1.64-1.29l0,0c0.81,0.1,1.39,0.83,1.29,1.64l0,0
			c-0.09,0.75-0.73,1.31-1.47,1.31l0,0C67.5,229.75,67.44,229.75,67.39,229.74z"/>
	</g>
	<g id="XMLID_312_" class="st7">
		<path id="XMLID_313_" class="st4" d="M65.95,267.35c-0.08-0.66,0.39-1.25,1.04-1.33l0,0c0.66-0.08,1.26,0.38,1.34,1.05l0,0
			c0.08,0.65-0.39,1.25-1.05,1.33l0,0c-0.05,0.01-0.1,0.01-0.14,0.01l0,0C66.54,268.41,66.03,267.96,65.95,267.35z M58.38,267.33
			L58.38,267.33L58.38,267.33c-0.62-0.23-0.93-0.93-0.69-1.54l0,0c0.23-0.62,0.92-0.93,1.54-0.7l0,0c0.62,0.23,0.93,0.93,0.7,1.54
			l0,0c-0.18,0.48-0.64,0.78-1.12,0.78l0,0C58.66,267.41,58.52,267.38,58.38,267.33z M74.01,264.91c-0.38-0.55-0.24-1.29,0.3-1.67
			l0,0c0.54-0.37,1.29-0.24,1.67,0.3l0,0c0.37,0.55,0.24,1.29-0.3,1.67l0,0c-0.21,0.14-0.45,0.21-0.69,0.21l0,0
			C74.61,265.42,74.24,265.25,74.01,264.91z M51,262.24c-0.44-0.49-0.4-1.25,0.1-1.69l0,0c0.49-0.44,1.25-0.4,1.69,0.1l0,0
			c0.44,0.49,0.4,1.25-0.1,1.69l0,0c-0.23,0.2-0.51,0.3-0.79,0.3l0,0C51.56,262.64,51.23,262.51,51,262.24z M80,259
			c-0.58-0.31-0.81-1.03-0.5-1.62l0,0c0.31-0.58,1.03-0.81,1.61-0.5l0,0c0.58,0.31,0.81,1.03,0.51,1.61l0,0
			c-0.22,0.41-0.63,0.64-1.07,0.64l0,0C80.37,259.14,80.18,259.09,80,259z M46.81,254.31c-0.16-0.64,0.23-1.29,0.87-1.45l0,0
			c0.64-0.16,1.29,0.23,1.45,0.87l0,0c0.16,0.64-0.23,1.29-0.88,1.45l0,0c-0.1,0.02-0.19,0.04-0.28,0.04l0,0
			C47.43,255.21,46.95,254.85,46.81,254.31z M81.37,249.79c0-0.01,0-0.02,0-0.04l0,0c0-0.01,0-0.02,0-0.03l0,0
			c-0.01-0.66,0.53-1.2,1.19-1.2l0,0c0.66-0.01,1.2,0.53,1.2,1.19l0,0l0,0l0,0c0,0.01-0.01,0.02-0.01,0.04l0,0
			c0,0.01,0.01,0.02,0.01,0.04l0,0c0,0.66-0.54,1.2-1.2,1.2l0,0C81.9,250.98,81.37,250.45,81.37,249.79z M47.67,246.78
			c-0.64-0.16-1.04-0.81-0.88-1.44l0,0c0.16-0.64,0.8-1.04,1.44-0.88l0,0c0.64,0.16,1.03,0.81,0.88,1.45l0,0
			c-0.13,0.55-0.62,0.91-1.16,0.91l0,0C47.87,246.82,47.77,246.81,47.67,246.78z M79.47,242.13c-0.31-0.58-0.09-1.31,0.49-1.61l0,0
			c0.58-0.31,1.31-0.09,1.62,0.49l0,0c0.31,0.58,0.09,1.31-0.49,1.62l0,0c-0.18,0.1-0.37,0.14-0.57,0.14l0,0
			C80.1,242.77,79.68,242.54,79.47,242.13z M51.06,239.08c-0.5-0.44-0.55-1.19-0.11-1.68l0,0l0,0l0,0c0.44-0.5,1.19-0.55,1.69-0.11
			l0,0c0.49,0.44,0.54,1.19,0.1,1.69l0,0c-0.23,0.26-0.57,0.4-0.9,0.4l0,0C51.56,239.38,51.28,239.28,51.06,239.08z M74.25,236.3
			L74.25,236.3c-0.54-0.37-0.68-1.12-0.31-1.67l0,0c0.37-0.54,1.12-0.68,1.66-0.31l0,0c0.55,0.37,0.69,1.12,0.31,1.66l0,0
			c-0.23,0.34-0.61,0.52-0.99,0.52l0,0C74.7,236.51,74.46,236.43,74.25,236.3z M57.62,233.82c-0.23-0.62,0.08-1.31,0.69-1.55l0,0
			c0.62-0.23,1.31,0.07,1.55,0.69l0,0c0.23,0.61-0.07,1.31-0.69,1.55l0,0c-0.14,0.05-0.28,0.08-0.43,0.08l0,0
			C58.26,234.59,57.81,234.29,57.62,233.82z M66.94,233.55c-0.66-0.08-1.13-0.67-1.05-1.33l0,0c0.08-0.66,0.67-1.13,1.33-1.05l0,0
			c0.66,0.07,1.13,0.67,1.05,1.33l0,0c-0.07,0.61-0.58,1.05-1.19,1.05l0,0C67.03,233.55,66.98,233.55,66.94,233.55z"/>
	</g>
	<path id="XMLID_276_" class="st5" d="M414.34,369c-0.98-0.42-1.43-1.55-1.01-2.53l0,0c0.42-0.98,1.55-1.43,2.53-1.01l0,0
		c0.98,0.42,1.43,1.55,1.01,2.53l0,0c-0.04,0.08-0.07,0.15-0.11,0.21l0,0C416.29,369.03,415.25,369.39,414.34,369z"/>
	<path id="XMLID_275_" class="st22" d="M408.19,379.52c-0.83,0.67-2.04,0.55-2.71-0.28l0,0c-0.67-0.82-0.55-2.03,0.27-2.71l0,0
		c0.83-0.67,2.04-0.55,2.71,0.28l0,0c0.52,0.64,0.56,1.51,0.17,2.19l0,0C408.53,379.19,408.38,379.37,408.19,379.52z"/>
	<path id="XMLID_274_" class="st22" d="M417.44,355.82c-1.06,0.08-1.99-0.71-2.08-1.77l0,0c-0.08-1.06,0.71-1.99,1.77-2.07l0,0
		c1.06-0.09,1.99,0.7,2.08,1.76l0,0c0.03,0.41-0.07,0.79-0.26,1.12l0,0C418.65,355.39,418.1,355.77,417.44,355.82z"/>
	<path id="XMLID_273_" class="st22" d="M395.14,385.69c-1.05,0.22-2.06-0.46-2.28-1.5l0,0c-0.21-1.04,0.46-2.06,1.5-2.27l0,0
		c1.04-0.21,2.06,0.46,2.27,1.5l0,0c0.1,0.48,0.01,0.96-0.22,1.35l0,0C396.16,385.23,395.71,385.58,395.14,385.69z"/>
	<path id="XMLID_272_" class="st22" d="M414.06,342.7c-0.91,0.56-2.09,0.29-2.66-0.61l0,0c-0.56-0.9-0.3-2.09,0.61-2.65l0,0
		c0.9-0.57,2.09-0.29,2.65,0.61l0,0c0.4,0.63,0.39,1.4,0.04,2l0,0C414.55,342.3,414.33,342.53,414.06,342.7z"/>
	<path id="XMLID_271_" class="st5" d="M380.72,385.11c-1.02-0.3-1.61-1.37-1.31-2.39l0,0c0.29-1.02,1.36-1.61,2.39-1.31l0,0
		c1.02,0.29,1.6,1.37,1.31,2.39l0,0c-0.04,0.15-0.11,0.3-0.19,0.43l0,0C382.49,384.98,381.58,385.36,380.72,385.11z"/>
	<path id="XMLID_270_" class="st5" d="M402.34,333.36c-0.02-0.01-0.03-0.02-0.04-0.03l0,0c-0.02-0.01-0.03-0.02-0.04-0.03l0,0
		c-0.93-0.53-1.24-1.71-0.71-2.63l0,0c0.53-0.93,1.71-1.24,2.62-0.71l0,0c0.02,0.01,0.04,0.02,0.06,0.03l0,0
		c0.02,0.01,0.03,0.02,0.05,0.03l0,0c0.92,0.53,1.23,1.71,0.7,2.63l0,0C404.43,333.58,403.26,333.9,402.34,333.36z"/>
	<path id="XMLID_269_" class="st22" d="M370.94,377.83c-0.74,0.77-1.95,0.8-2.72,0.06l0,0c-0.77-0.74-0.79-1.96-0.06-2.73l0,0
		c0.74-0.77,1.96-0.79,2.72-0.05l0,0c0.65,0.62,0.77,1.6,0.33,2.35l0,0C371.15,377.6,371.06,377.72,370.94,377.83z"/>
	<path id="XMLID_268_" class="st5" d="M390.15,329.82c-1.06-0.04-1.88-0.94-1.85-2l0,0c0.04-1.06,0.93-1.89,1.99-1.85l0,0
		c1.07,0.04,1.89,0.93,1.85,2l0,0c-0.01,0.33-0.11,0.63-0.26,0.89l0,0C391.54,329.46,390.89,329.85,390.15,329.82z"/>
	<path id="XMLID_267_" class="st22" d="M362.95,366.91c-1.01,0.33-2.1-0.21-2.43-1.22l0,0c-0.34-1.01,0.21-2.1,1.21-2.44l0,0
		c1.01-0.33,2.1,0.21,2.44,1.22l0,0c0.18,0.55,0.1,1.11-0.17,1.58l0,0C363.77,366.44,363.41,366.75,362.95,366.91z"/>
	<path id="XMLID_266_" class="st22" d="M377.81,332.36c-0.96,0.46-2.11,0.05-2.57-0.91l0,0c-0.45-0.96-0.04-2.11,0.92-2.56l0,0
		c0.96-0.46,2.11-0.05,2.57,0.91l0,0c0.29,0.6,0.23,1.26-0.08,1.8l0,0C378.46,331.91,378.18,332.18,377.81,332.36z"/>
	<path id="XMLID_265_" class="st22" d="M360.93,353.51c-1.05-0.17-1.76-1.16-1.59-2.21l0,0l0,0l0,0c0.17-1.05,1.16-1.76,2.21-1.6
		l0,0c1.05,0.17,1.76,1.16,1.59,2.21l0,0c-0.04,0.24-0.12,0.46-0.24,0.66l0,0C362.52,353.24,361.74,353.64,360.93,353.51z"/>
	<path id="XMLID_264_" class="st5" d="M368.07,340.33c-0.63,0.85-1.84,1.02-2.7,0.39l0,0c-0.85-0.63-1.02-1.85-0.39-2.7l0,0l0,0l0,0
		c0.64-0.85,1.84-1.02,2.7-0.39l0,0c0.79,0.59,1,1.67,0.51,2.5l0,0C368.16,340.21,368.11,340.27,368.07,340.33z"/>
	<path id="XMLID_261_" class="st22" d="M409.76,366.66c-0.8-0.34-1.17-1.27-0.83-2.07l0,0c0.34-0.8,1.27-1.17,2.07-0.83l0,0
		c0.8,0.35,1.17,1.27,0.83,2.07l0,0c-0.02,0.06-0.05,0.12-0.09,0.17l0,0C411.35,366.68,410.5,366.98,409.76,366.66z"/>
	<path id="XMLID_260_" class="st22" d="M404.72,375.27c-0.68,0.55-1.67,0.45-2.21-0.23l0,0c-0.55-0.67-0.45-1.66,0.22-2.22l0,0
		c0.68-0.55,1.67-0.45,2.22,0.22l0,0c0.43,0.53,0.46,1.24,0.14,1.79l0,0C405,375,404.88,375.14,404.72,375.27z"/>
	<path id="XMLID_259_" class="st22" d="M412.3,355.88c-0.87,0.07-1.63-0.58-1.7-1.45l0,0c-0.07-0.87,0.58-1.62,1.45-1.7l0,0
		c0.86-0.07,1.63,0.58,1.7,1.45l0,0c0.02,0.33-0.06,0.65-0.21,0.92l0,0C413.28,355.53,412.83,355.83,412.3,355.88z"/>
	<path id="XMLID_258_" class="st22" d="M394.05,380.32c-0.85,0.17-1.68-0.38-1.85-1.23l0,0c-0.17-0.85,0.38-1.68,1.23-1.86l0,0
		c0.85-0.17,1.68,0.38,1.86,1.23l0,0c0.08,0.39,0.01,0.78-0.18,1.1l0,0C394.88,379.94,394.51,380.22,394.05,380.32z"/>
	<path id="XMLID_257_" class="st5" d="M409.53,345.14c-0.74,0.46-1.72,0.24-2.18-0.5l0,0c-0.46-0.74-0.24-1.71,0.49-2.17l0,0
		c0.74-0.46,1.71-0.24,2.17,0.49l0,0c0.32,0.52,0.32,1.14,0.03,1.63l0,0C409.93,344.82,409.75,345,409.53,345.14z"/>
	<path id="XMLID_256_" class="st22" d="M382.25,379.84c-0.84-0.24-1.32-1.12-1.07-1.95l0,0c0.24-0.84,1.11-1.32,1.95-1.08l0,0
		c0.83,0.24,1.32,1.12,1.07,1.96l0,0c-0.04,0.13-0.09,0.24-0.15,0.35l0,0C383.69,379.73,382.96,380.05,382.25,379.84z"/>
	<path id="XMLID_255_" class="st22" d="M399.93,337.5L399.93,337.5c0-0.01-0.01-0.01-0.02-0.02l0,0c-0.02-0.01-0.04-0.01-0.05-0.02
		l0,0c-0.76-0.44-1.01-1.4-0.58-2.16l0,0c0.44-0.76,1.4-1.01,2.15-0.58l0,0c0.02,0.01,0.03,0.02,0.04,0.03l0,0
		c0.01,0.01,0.03,0.02,0.04,0.02l0,0c0.76,0.44,1.01,1.4,0.58,2.15l0,0C401.65,337.69,400.69,337.94,399.93,337.5z"/>
	<path id="XMLID_254_" class="st22" d="M374.25,373.89c-0.6,0.63-1.6,0.65-2.23,0.04l0,0c0,0,0,0,0,0.01l0,0
		c-0.62-0.61-0.65-1.6-0.04-2.23l0,0c0.6-0.63,1.6-0.65,2.23-0.05l0,0c0.53,0.52,0.63,1.31,0.27,1.93l0,0
		C374.41,373.69,374.34,373.8,374.25,373.89z"/>
	<path id="XMLID_253_" class="st22" d="M389.96,334.61c-0.87-0.04-1.55-0.76-1.51-1.64l0,0c0.04-0.87,0.76-1.55,1.64-1.51l0,0
		c0.87,0.03,1.55,0.77,1.51,1.64l0,0c-0.01,0.26-0.08,0.52-0.21,0.73l0,0C391.11,334.31,390.57,334.62,389.96,334.61z"/>
	<path id="XMLID_252_" class="st5" d="M367.7,364.95c-0.82,0.28-1.72-0.17-1.99-1l0,0c-0.28-0.82,0.16-1.72,0.99-1.99l0,0
		c0.83-0.28,1.72,0.17,2,1l0,0c0.15,0.45,0.08,0.92-0.14,1.29l0,0C368.39,364.56,368.08,364.82,367.7,364.95z"/>
	<path id="XMLID_251_" class="st22" d="M379.87,336.68c-0.79,0.37-1.73,0.04-2.1-0.75l0,0c-0.37-0.79-0.04-1.72,0.75-2.1l0,0l0,0
		l0,0c0.78-0.38,1.72-0.04,2.1,0.74l0,0c0.23,0.49,0.19,1.04-0.06,1.47l0,0C380.4,336.32,380.17,336.54,379.87,336.68z"/>
	<path id="XMLID_250_" class="st22" d="M366.06,353.99c-0.86-0.13-1.44-0.95-1.31-1.8l0,0c0.14-0.86,0.95-1.45,1.81-1.3l0,0
		c0.86,0.13,1.44,0.95,1.31,1.8l0,0c-0.03,0.2-0.1,0.38-0.19,0.54l0,0C367.35,353.77,366.72,354.1,366.06,353.99z"/>
	<path id="XMLID_249_" class="st22" d="M371.9,343.2c-0.52,0.7-1.5,0.84-2.21,0.32l0,0c-0.7-0.52-0.84-1.51-0.31-2.21l0,0
		c0.52-0.69,1.51-0.84,2.2-0.32l0,0c0.65,0.49,0.81,1.37,0.42,2.05l0,0C371.97,343.1,371.94,343.16,371.9,343.2z"/>
	<path id="XMLID_246_" class="st22" d="M405.84,364.66c-0.65-0.28-0.95-1.03-0.67-1.67l0,0c0.28-0.65,1.03-0.95,1.68-0.67l0,0
		c0.64,0.28,0.95,1.03,0.67,1.68l0,0c-0.02,0.05-0.05,0.09-0.07,0.14l0,0C407.13,364.68,406.44,364.92,405.84,364.66z"/>
	<path id="XMLID_245_" class="st22" d="M401.76,371.64L401.76,371.64L401.76,371.64c-0.55,0.45-1.35,0.36-1.79-0.19l0,0
		c-0.45-0.55-0.37-1.35,0.18-1.8l0,0c0.55-0.45,1.35-0.36,1.8,0.18l0,0c0.35,0.42,0.37,1,0.12,1.45l0,0
		C401.99,371.42,401.89,371.54,401.76,371.64z"/>
	<path id="XMLID_244_" class="st22" d="M407.9,355.92c-0.71,0.06-1.32-0.47-1.38-1.17l0,0c-0.05-0.7,0.47-1.32,1.17-1.38l0,0
		c0.71-0.05,1.32,0.47,1.38,1.17l0,0c0.02,0.27-0.04,0.52-0.17,0.75l0,0C408.69,355.64,408.33,355.89,407.9,355.92z"/>
	<path id="XMLID_243_" class="st5" d="M393.11,375.73c-0.69,0.14-1.36-0.3-1.5-0.99l0,0c-0.14-0.69,0.3-1.37,0.99-1.51l0,0
		c0.69-0.14,1.37,0.3,1.51,0.99l0,0c0.06,0.32,0,0.63-0.15,0.89l0,0C393.79,375.42,393.49,375.65,393.11,375.73z"/>
	<path id="XMLID_242_" class="st22" d="M405.65,347.23c-0.6,0.37-1.38,0.2-1.76-0.41l0,0c-0.37-0.6-0.19-1.38,0.4-1.76l0,0
		c0.6-0.37,1.38-0.2,1.76,0.4l0,0c0.26,0.42,0.26,0.93,0.02,1.33l0,0C405.98,346.96,405.83,347.11,405.65,347.23z"/>
	<path id="XMLID_241_" class="st22" d="M383.55,375.34c-0.68-0.19-1.07-0.9-0.87-1.58l0,0c0.2-0.67,0.91-1.06,1.58-0.87l0,0
		c0.68,0.2,1.07,0.91,0.87,1.59l0,0c-0.03,0.1-0.07,0.2-0.12,0.28l0,0C384.73,375.25,384.13,375.51,383.55,375.34z"/>
	<path id="XMLID_240_" class="st5" d="M397.88,341.04c-0.01-0.01-0.02-0.01-0.03-0.02l0,0c-0.01,0-0.02-0.01-0.03-0.02l0,0
		c-0.61-0.35-0.82-1.13-0.47-1.74l0,0c0.35-0.61,1.13-0.82,1.74-0.47l0,0l0,0l0,0c0.01,0.01,0.02,0.02,0.03,0.02l0,0
		c0.01,0.01,0.03,0.01,0.04,0.01l0,0c0.61,0.35,0.81,1.14,0.46,1.75l0,0C399.28,341.18,398.49,341.39,397.88,341.04z"/>
	<path id="XMLID_239_" class="st5" d="M377.07,370.52c-0.49,0.51-1.3,0.52-1.8,0.04l0,0c-0.51-0.49-0.53-1.29-0.04-1.81l0,0
		c0.49-0.51,1.3-0.52,1.81-0.03l0,0c0.43,0.42,0.51,1.06,0.22,1.56l0,0C377.21,370.36,377.15,370.44,377.07,370.52z"/>
	<path id="XMLID_233_" class="st22" d="M389.81,338.69c-0.71-0.02-1.25-0.62-1.22-1.32l0,0c0.02-0.71,0.62-1.25,1.32-1.23l0,0
		c0.7,0.03,1.25,0.62,1.23,1.32l0,0c-0.01,0.22-0.07,0.42-0.18,0.6l0,0C390.73,338.45,390.3,338.71,389.81,338.69z"/>
	<path id="XMLID_231_" class="st22" d="M371.77,363.27c-0.67,0.23-1.39-0.13-1.61-0.8l0,0l0,0l0,0c-0.23-0.67,0.13-1.39,0.81-1.62
		l0,0c0.67-0.22,1.39,0.14,1.62,0.81l0,0c0.12,0.36,0.07,0.74-0.11,1.04l0,0C372.32,362.96,372.08,363.17,371.77,363.27z"/>
	<path id="XMLID_230_" class="st22" d="M381.63,340.38L381.63,340.38c-0.63,0.3-1.4,0.03-1.7-0.61l0,0c-0.3-0.63-0.03-1.4,0.61-1.7
		l0,0c0.64-0.31,1.4-0.03,1.7,0.6l0,0c0.19,0.4,0.16,0.84-0.05,1.19l0,0C382.06,340.08,381.87,340.26,381.63,340.38z"/>
	<path id="XMLID_229_" class="st22" d="M370.43,354.4c-0.7-0.12-1.17-0.77-1.06-1.47l0,0c0.12-0.7,0.77-1.17,1.47-1.06l0,0
		c0.69,0.11,1.17,0.77,1.06,1.47l0,0c-0.02,0.16-0.08,0.3-0.16,0.44l0,0C371.49,354.22,370.97,354.48,370.43,354.4z"/>
	<path id="XMLID_228_" class="st22" d="M375.17,345.66c-0.42,0.56-1.22,0.68-1.79,0.26l0,0c-0.56-0.42-0.68-1.22-0.25-1.79l0,0
		c0.42-0.57,1.22-0.68,1.79-0.25l0,0c0.53,0.39,0.66,1.1,0.34,1.66l0,0C375.23,345.58,375.2,345.61,375.17,345.66z"/>
	<path id="XMLID_310_" class="st5" d="M663.34,23.21c-0.97-0.42-1.43-1.55-1.01-2.53l0,0c0.42-0.98,1.55-1.43,2.53-1.01l0,0
		c0.98,0.42,1.43,1.55,1.01,2.53l0,0c-0.04,0.08-0.07,0.15-0.11,0.21l0,0C665.29,23.24,664.25,23.6,663.34,23.21z"/>
	<path id="XMLID_309_" class="st22" d="M657.19,33.73c-0.83,0.67-2.04,0.55-2.71-0.28l0,0c-0.67-0.82-0.55-2.03,0.27-2.71l0,0
		c0.83-0.67,2.04-0.55,2.71,0.28l0,0c0.52,0.64,0.56,1.51,0.17,2.19l0,0C657.53,33.4,657.38,33.58,657.19,33.73z"/>
	<path id="XMLID_308_" class="st22" d="M666.44,10.03c-1.06,0.08-1.99-0.71-2.08-1.77l0,0c-0.08-1.06,0.71-1.99,1.77-2.07l0,0
		c1.06-0.09,1.99,0.7,2.08,1.76l0,0c0.03,0.41-0.07,0.79-0.26,1.12l0,0C667.65,9.6,667.1,9.98,666.44,10.03z"/>
	<path id="XMLID_307_" class="st22" d="M644.14,39.9c-1.05,0.22-2.06-0.46-2.28-1.5l0,0c-0.21-1.04,0.46-2.06,1.5-2.27l0,0
		c1.04-0.21,2.06,0.46,2.27,1.5l0,0c0.1,0.48,0.01,0.96-0.22,1.35l0,0C645.16,39.44,644.71,39.79,644.14,39.9z"/>
	<path id="XMLID_305_" class="st5" d="M629.72,39.32c-1.02-0.3-1.61-1.37-1.31-2.39l0,0c0.29-1.02,1.36-1.61,2.39-1.31l0,0
		c1.02,0.29,1.6,1.37,1.31,2.39l0,0c-0.04,0.15-0.11,0.3-0.19,0.43l0,0C631.49,39.19,630.58,39.57,629.72,39.32z"/>
	<path id="XMLID_303_" class="st22" d="M619.94,32.04c-0.74,0.77-1.95,0.8-2.72,0.06l0,0c-0.77-0.74-0.79-1.96-0.06-2.73l0,0
		c0.74-0.77,1.96-0.79,2.72-0.05l0,0c0.65,0.62,0.77,1.6,0.33,2.35l0,0C620.15,31.81,620.06,31.93,619.94,32.04z"/>
	<path id="XMLID_301_" class="st22" d="M611.95,21.11c-1.01,0.33-2.1-0.21-2.43-1.22l0,0c-0.34-1.01,0.21-2.1,1.21-2.44l0,0
		c1.01-0.33,2.1,0.21,2.44,1.22l0,0c0.18,0.55,0.1,1.11-0.17,1.58l0,0C612.77,20.64,612.41,20.96,611.95,21.11z"/>
	<path id="XMLID_299_" class="st22" d="M609.93,7.72c-1.05-0.17-1.76-1.16-1.59-2.21l0,0l0,0l0,0c0.17-1.05,1.16-1.76,2.21-1.6l0,0
		c1.05,0.17,1.76,1.16,1.59,2.21l0,0c-0.04,0.24-0.12,0.46-0.24,0.66l0,0C611.52,7.45,610.74,7.85,609.93,7.72z"/>
	<path id="XMLID_297_" class="st22" d="M658.76,20.87c-0.8-0.34-1.17-1.27-0.83-2.07l0,0c0.34-0.8,1.27-1.17,2.07-0.83l0,0
		c0.8,0.35,1.17,1.27,0.83,2.07l0,0c-0.02,0.06-0.05,0.12-0.09,0.17l0,0C660.35,20.89,659.5,21.19,658.76,20.87z"/>
	<path id="XMLID_296_" class="st22" d="M653.72,29.48c-0.68,0.55-1.67,0.45-2.21-0.23l0,0c-0.55-0.67-0.45-1.66,0.22-2.22l0,0
		c0.68-0.55,1.67-0.45,2.22,0.22l0,0c0.43,0.53,0.46,1.24,0.14,1.79l0,0C654,29.21,653.88,29.35,653.72,29.48z"/>
	<path id="XMLID_295_" class="st22" d="M661.3,10.09c-0.87,0.07-1.63-0.58-1.7-1.45l0,0c-0.07-0.87,0.58-1.62,1.45-1.7l0,0
		c0.86-0.07,1.63,0.58,1.7,1.45l0,0c0.02,0.33-0.06,0.65-0.21,0.92l0,0C662.28,9.73,661.83,10.04,661.3,10.09z"/>
	<path id="XMLID_294_" class="st22" d="M643.05,34.53c-0.85,0.17-1.68-0.38-1.85-1.23l0,0c-0.17-0.85,0.38-1.68,1.23-1.86l0,0
		c0.85-0.17,1.68,0.38,1.86,1.23l0,0c0.08,0.39,0.01,0.78-0.18,1.1l0,0C643.88,34.15,643.51,34.43,643.05,34.53z"/>
	<path id="XMLID_292_" class="st22" d="M631.25,34.05c-0.84-0.24-1.32-1.12-1.07-1.95l0,0c0.24-0.84,1.11-1.32,1.95-1.08l0,0
		c0.83,0.24,1.32,1.12,1.07,1.96l0,0c-0.04,0.13-0.09,0.24-0.15,0.35l0,0C632.69,33.94,631.96,34.26,631.25,34.05z"/>
	<path id="XMLID_290_" class="st22" d="M623.25,28.1c-0.6,0.63-1.6,0.65-2.23,0.04l0,0c0,0,0,0,0,0.01l0,0
		c-0.62-0.61-0.65-1.6-0.04-2.23l0,0c0.6-0.63,1.6-0.65,2.23-0.05l0,0c0.53,0.52,0.63,1.31,0.27,1.93l0,0
		C623.41,27.9,623.34,28.01,623.25,28.1z"/>
	<path id="XMLID_288_" class="st5" d="M616.7,19.15c-0.82,0.28-1.72-0.17-1.99-1l0,0c-0.28-0.82,0.16-1.72,0.99-1.99l0,0
		c0.83-0.28,1.72,0.17,2,1l0,0c0.15,0.45,0.08,0.92-0.14,1.29l0,0C617.39,18.77,617.08,19.03,616.7,19.15z"/>
	<path id="XMLID_286_" class="st22" d="M615.06,8.19c-0.86-0.13-1.44-0.95-1.31-1.8l0,0c0.14-0.86,0.95-1.45,1.81-1.3l0,0
		c0.86,0.13,1.44,0.95,1.31,1.8l0,0c-0.03,0.2-0.1,0.38-0.19,0.54l0,0C616.35,7.98,615.72,8.3,615.06,8.19z"/>
	<path id="XMLID_284_" class="st22" d="M654.84,18.87c-0.65-0.28-0.95-1.03-0.67-1.67l0,0c0.28-0.65,1.03-0.95,1.68-0.67l0,0
		c0.64,0.28,0.95,1.03,0.67,1.68l0,0c-0.02,0.05-0.05,0.09-0.07,0.14l0,0C656.13,18.89,655.44,19.13,654.84,18.87z"/>
	<path id="XMLID_283_" class="st22" d="M650.76,25.85L650.76,25.85L650.76,25.85c-0.55,0.45-1.35,0.36-1.79-0.19l0,0
		c-0.45-0.55-0.37-1.35,0.18-1.8l0,0c0.55-0.45,1.35-0.36,1.8,0.18l0,0c0.35,0.42,0.37,1,0.12,1.45l0,0
		C650.99,25.63,650.89,25.75,650.76,25.85z"/>
	<path id="XMLID_282_" class="st22" d="M656.9,10.13c-0.71,0.06-1.32-0.47-1.38-1.17l0,0c-0.05-0.7,0.47-1.32,1.17-1.38l0,0
		c0.71-0.05,1.32,0.47,1.38,1.17l0,0c0.02,0.27-0.04,0.52-0.17,0.75l0,0C657.69,9.85,657.33,10.1,656.9,10.13z"/>
	<path id="XMLID_281_" class="st5" d="M642.11,29.93c-0.69,0.14-1.36-0.3-1.5-0.99l0,0c-0.14-0.69,0.3-1.37,0.99-1.51l0,0
		c0.69-0.14,1.37,0.3,1.51,0.99l0,0c0.06,0.32,0,0.63-0.15,0.89l0,0C642.79,29.63,642.49,29.86,642.11,29.93z"/>
	<path id="XMLID_280_" class="st22" d="M654.65,1.44c-0.6,0.37-1.38,0.2-1.76-0.41l0,0c-0.37-0.6-0.19-1.38,0.4-1.76l0,0
		c0.6-0.37,1.38-0.2,1.76,0.4l0,0c0.26,0.42,0.26,0.93,0.02,1.33l0,0C654.98,1.17,654.83,1.32,654.65,1.44z"/>
	<path id="XMLID_279_" class="st22" d="M632.55,29.55c-0.68-0.19-1.07-0.9-0.87-1.58l0,0c0.2-0.67,0.91-1.06,1.58-0.87l0,0
		c0.68,0.2,1.07,0.91,0.87,1.59l0,0c-0.03,0.1-0.07,0.2-0.12,0.28l0,0C633.73,29.46,633.13,29.72,632.55,29.55z"/>
	<path id="XMLID_277_" class="st5" d="M626.07,24.73c-0.49,0.51-1.3,0.52-1.8,0.04l0,0c-0.51-0.49-0.53-1.29-0.04-1.81l0,0
		c0.49-0.51,1.3-0.52,1.81-0.03l0,0c0.43,0.42,0.51,1.06,0.22,1.56l0,0C626.21,24.57,626.15,24.65,626.07,24.73z"/>
	<path id="XMLID_262_" class="st22" d="M620.77,17.48c-0.67,0.23-1.39-0.13-1.61-0.8l0,0l0,0l0,0c-0.23-0.67,0.13-1.39,0.81-1.62
		l0,0c0.67-0.22,1.39,0.14,1.61,0.81l0,0c0.12,0.36,0.07,0.74-0.11,1.04l0,0C621.32,17.17,621.08,17.38,620.77,17.48z"/>
	<path id="XMLID_247_" class="st22" d="M619.43,8.6c-0.7-0.12-1.17-0.77-1.06-1.47l0,0c0.12-0.7,0.77-1.17,1.47-1.06l0,0
		c0.69,0.11,1.17,0.77,1.06,1.47l0,0c-0.02,0.16-0.08,0.3-0.16,0.44l0,0C620.49,8.43,619.97,8.69,619.43,8.6z"/>
	<path id="XMLID_227_" class="st22" d="M624.17-0.14c-0.42,0.56-1.22,0.68-1.79,0.26l0,0c-0.56-0.42-0.68-1.22-0.25-1.79l0,0
		c0.42-0.57,1.22-0.68,1.79-0.25l0,0c0.53,0.39,0.66,1.1,0.34,1.66l0,0C624.23-0.22,624.2-0.18,624.17-0.14z"/>
	<g id="XMLID_359_" class="st7">
		<path id="XMLID_362_" class="st4" d="M46.23,28.47c-1.22,1.32-3.29,1.41-4.61,0.18c-1.32-1.22-1.41-3.29-0.18-4.61
			c1.22-1.32,3.29-1.41,4.61-0.18C47.37,25.08,47.45,27.14,46.23,28.47z"/>
		<path id="XMLID_363_" class="st15" d="M60.25,41.41c-1.22,1.32-3.29,1.41-4.61,0.18c-1.32-1.22-1.41-3.29-0.18-4.61
			c1.22-1.32,3.29-1.41,4.61-0.18C61.39,38.02,61.47,40.09,60.25,41.41z"/>
	</g>
	<g id="XMLID_365_" class="st7">
		<path id="XMLID_368_" class="st4" d="M43.96,2.79c-1.22,1.32-3.29,1.41-4.61,0.18c-1.32-1.22-1.41-3.29-0.18-4.61
			c1.22-1.32,3.29-1.41,4.61-0.18C45.1-0.6,45.18,1.47,43.96,2.79z"/>
	</g>
	<g id="XMLID_371_" class="st7">
		<path id="XMLID_373_" class="st4" d="M69.73,3.01c-1.22,1.32-3.29,1.41-4.61,0.18c-1.32-1.22-1.41-3.29-0.18-4.61
			c1.22-1.32,3.29-1.41,4.61-0.18C70.87-0.38,70.95,1.68,69.73,3.01z"/>
		<path id="XMLID_372_" class="st4" d="M83.75,15.95c-1.22,1.32-3.29,1.41-4.61,0.18c-1.32-1.22-1.41-3.29-0.18-4.61
			c1.22-1.32,3.29-1.41,4.61-0.18C84.89,12.56,84.97,14.63,83.75,15.95z"/>
	</g>
	<g id="XMLID_394_" class="st7">
		<path id="XMLID_398_" class="st4" d="M469.83,483.94c-1.2,1.35-3.26,1.47-4.61,0.27c-1.35-1.2-1.47-3.26-0.27-4.61
			c1.2-1.35,3.26-1.47,4.61-0.27C470.91,480.53,471.03,482.59,469.83,483.94z"/>
		<path id="XMLID_397_" class="st15" d="M484.09,496.62c-1.2,1.35-3.26,1.47-4.61,0.27c-1.35-1.2-1.47-3.26-0.27-4.61
			c1.2-1.35,3.26-1.47,4.61-0.27C485.17,493.21,485.29,495.27,484.09,496.62z"/>
	</g>
	<g id="XMLID_390_" class="st7">
		<path id="XMLID_393_" class="st4" d="M495.6,483.68c-1.2,1.35-3.26,1.47-4.61,0.27c-1.35-1.2-1.47-3.26-0.27-4.61
			c1.2-1.35,3.26-1.47,4.61-0.27C496.68,480.27,496.8,482.33,495.6,483.68z"/>
		<path id="XMLID_392_" class="st4" d="M509.86,496.36c-1.2,1.35-3.26,1.47-4.61,0.27c-1.35-1.2-1.47-3.26-0.27-4.61
			c1.2-1.35,3.26-1.47,4.61-0.27C510.94,492.95,511.06,495.01,509.86,496.36z"/>
	</g>
	<g id="XMLID_384_" class="st7">
		<path id="XMLID_388_" class="st15" d="M507.12,470.73c-1.2,1.35-3.26,1.47-4.61,0.27c-1.35-1.2-1.47-3.26-0.27-4.61
			c1.2-1.35,3.26-1.47,4.61-0.27C508.19,467.32,508.32,469.39,507.12,470.73z"/>
		<path id="XMLID_387_" class="st4" d="M521.38,483.41c-1.2,1.35-3.26,1.47-4.61,0.27c-1.35-1.2-1.47-3.26-0.27-4.61
			c1.2-1.35,3.26-1.47,4.61-0.27C522.45,480,522.57,482.07,521.38,483.41z"/>
		<path id="XMLID_386_" class="st4" d="M535.63,496.09c-1.2,1.35-3.26,1.47-4.61,0.27c-1.35-1.2-1.47-3.26-0.27-4.61
			c1.2-1.35,3.26-1.47,4.61-0.27C536.71,492.68,536.83,494.75,535.63,496.09z"/>
	</g>
	<g id="XMLID_370_" class="st7">
		<path id="XMLID_383_" class="st15" d="M504.37,445.11c-1.2,1.35-3.26,1.47-4.61,0.27c-1.35-1.2-1.47-3.26-0.27-4.61
			c1.2-1.35,3.26-1.47,4.61-0.27C505.45,441.7,505.57,443.76,504.37,445.11z"/>
		<path id="XMLID_381_" class="st4" d="M532.89,470.47c-1.2,1.35-3.26,1.47-4.61,0.27c-1.35-1.2-1.47-3.26-0.27-4.61
			c1.2-1.35,3.26-1.47,4.61-0.27S534.09,469.12,532.89,470.47z"/>
		<path id="XMLID_378_" class="st15" d="M547.15,483.15c-1.2,1.35-3.26,1.47-4.61,0.27c-1.35-1.2-1.47-3.26-0.27-4.61
			c1.2-1.35,3.26-1.47,4.61-0.27C548.22,479.74,548.34,481.8,547.15,483.15z"/>
	</g>
	<circle id="XMLID_364_" class="st33" cx="563" cy="196" r="13"/>
	<circle id="XMLID_401_" class="st34" cx="184.17" cy="100" r="13"/>
	<g id="XMLID_424_" class="st7">
		<path id="XMLID_425_" class="st15" d="M272.5,230.83c-9.37,0-17-7.63-17-17c0-9.37,7.63-17,17-17s17,7.63,17,17
			C289.5,223.21,281.87,230.83,272.5,230.83z M272.5,204.83c-4.96,0-9,4.04-9,9s4.04,9,9,9s9-4.04,9-9S277.46,204.83,272.5,204.83z"
			/>
	</g>
	<g id="XMLID_420_" class="st7">
		<path id="XMLID_421_" class="st35" d="M254,212.33c-9.37,0-17-7.63-17-17c0-9.37,7.63-17,17-17s17,7.63,17,17
			C271,204.71,263.37,212.33,254,212.33z M254,186.33c-4.96,0-9,4.04-9,9s4.04,9,9,9s9-4.04,9-9S258.96,186.33,254,186.33z"/>
	</g>
	<g id="XMLID_434_" class="st7">
		<path id="XMLID_435_" class="st15" d="M709.83,434.83c-9.37,0-17-7.63-17-17c0-9.37,7.63-17,17-17c9.37,0,17,7.63,17,17
			C726.83,427.21,719.21,434.83,709.83,434.83z M709.83,408.83c-4.96,0-9,4.04-9,9c0,4.96,4.04,9,9,9c4.96,0,9-4.04,9-9
			C718.83,412.87,714.8,408.83,709.83,408.83z"/>
	</g>
	<g id="XMLID_430_" class="st7">
		<path id="XMLID_431_" class="st36" d="M691.33,416.33c-9.37,0-17-7.63-17-17c0-9.37,7.63-17,17-17c9.37,0,17,7.63,17,17
			C708.33,408.71,700.71,416.33,691.33,416.33z M691.33,390.33c-4.96,0-9,4.04-9,9c0,4.96,4.04,9,9,9s9-4.04,9-9
			C700.33,394.37,696.3,390.33,691.33,390.33z"/>
	</g>
	<g id="XMLID_443_" class="st7">
		<path id="XMLID_444_" class="st15" d="M483.42,94.42c-9.37,0-17-7.63-17-17c0-9.37,7.63-17,17-17c9.37,0,17,7.63,17,17
			C500.42,86.79,492.79,94.42,483.42,94.42z M483.42,68.42c-4.96,0-9,4.04-9,9c0,4.96,4.04,9,9,9s9-4.04,9-9
			C492.42,72.45,488.38,68.42,483.42,68.42z"/>
	</g>
	<g id="XMLID_439_" class="st7">
		<path id="XMLID_440_" class="st36" d="M464.92,75.92c-9.37,0-17-7.63-17-17c0-9.37,7.63-17,17-17c9.37,0,17,7.63,17,17
			C481.92,68.29,474.29,75.92,464.92,75.92z M464.92,49.92c-4.96,0-9,4.04-9,9s4.04,9,9,9s9-4.04,9-9S469.88,49.92,464.92,49.92z"/>
	</g>
	<circle id="XMLID_402_" class="st37" cx="672.33" cy="122" r="8.17"/>
	<path id="XMLID_457_" class="st38" d="M471.67,304.67c0,2.58-2.09,4.67-4.67,4.67s-4.67-2.09-4.67-4.67c0-2.58,2.09-4.67,4.67-4.67
		S471.67,302.09,471.67,304.67z"/>
	<path id="XMLID_458_" class="st5" d="M474.75,307.75c0,2.58-2.09,4.67-4.67,4.67c-2.58,0-4.67-2.09-4.67-4.67s2.09-4.67,4.67-4.67
		C472.66,303.08,474.75,305.17,474.75,307.75z"/>
	<path id="XMLID_462_" class="st38" d="M143,268.67c0,2.58-2.09,4.67-4.67,4.67c-2.58,0-4.67-2.09-4.67-4.67
		c0-2.58,2.09-4.67,4.67-4.67C140.91,264,143,266.09,143,268.67z"/>
	<path id="XMLID_461_" class="st5" d="M146.08,271.75c0,2.58-2.09,4.67-4.67,4.67s-4.67-2.09-4.67-4.67s2.09-4.67,4.67-4.67
		S146.08,269.17,146.08,271.75z"/>
	<path id="XMLID_465_" class="st38" d="M272.25,38.58c0,2.58-2.09,4.67-4.67,4.67c-2.58,0-4.67-2.09-4.67-4.67
		c0-2.58,2.09-4.67,4.67-4.67C270.16,33.92,272.25,36.01,272.25,38.58z"/>
	<path id="XMLID_464_" class="st5" d="M275.33,41.67c0,2.58-2.09,4.67-4.67,4.67S266,44.24,266,41.67c0-2.58,2.09-4.67,4.67-4.67
		S275.33,39.09,275.33,41.67z"/>
	<path id="XMLID_450_" class="st5" d="M362.41,38.68c5.43,5.38,5.44,14.11,0,19.5l-19.68-19.5
		C348.16,33.29,356.97,33.29,362.41,38.68z"/>
	<path id="XMLID_452_" class="st14" d="M326.8,47.8c-5.43-5.38-5.44-14.11,0-19.5l19.68,19.5C341.05,53.19,332.24,53.18,326.8,47.8z
		"/>
	<path id="XMLID_456_" class="st5" d="M673.74,293.34c5.43,5.38,5.44,14.11,0,19.5l-19.68-19.5
		C659.5,287.96,668.31,287.96,673.74,293.34z"/>
	<path id="XMLID_455_" class="st14" d="M638.14,302.47c-5.43-5.38-5.44-14.11,0-19.5l19.68,19.5
		C652.39,307.85,643.57,307.85,638.14,302.47z"/>
</g>
<path id="XMLID_44_" class="st8" d="M272.87,283.31c6.93-6.93,18.17-6.93,25.1,0c6.93,6.93,6.93,18.17,0,25.1"/>
</svg>
